<svg width="32" height="32" viewBox="0 0 32 32" fill="none" xmlns="http://www.w3.org/2000/svg">
<path d="M21.4847 11.0214C18.8982 11.2703 16.1495 12.0459 14.24 13.9554C12.3304 15.865 11.5548 18.6137 11.306 21.2002M21.4847 11.0214C22.9828 10.8773 24.4265 10.9099 25.6211 11.0012C27.4867 11.1439 28.9267 12.5839 29.0694 14.4495C29.1607 15.6442 29.1933 17.0878 29.0492 18.5859M21.4847 11.0214L29.0492 18.5859M29.0492 18.5859C28.8003 21.1724 28.0247 23.9211 26.1152 25.8306C24.2056 27.7402 21.4569 28.5158 18.8704 28.7646M18.8704 28.7646C17.3724 28.9088 15.9287 28.8762 14.734 28.7848C12.8685 28.6422 11.4284 27.2021 11.2858 25.3366C11.1944 24.1419 11.1619 22.6983 11.306 21.2002M18.8704 28.7646L11.306 21.2002" stroke="#1E293B" stroke-width="1.92216" stroke-linecap="round"/>
<path d="M20.1719 11.246C20.123 9.93447 19.7625 8.6154 19.0606 7.39974C17.6983 5.04017 15.3557 3.59945 12.8442 3.29503C11.1161 3.08556 9.30803 3.4141 7.68441 4.3515C3.70121 6.6512 2.33647 11.7445 4.63617 15.7277C6.09886 18.2611 8.69166 19.7353 11.4102 19.8811" stroke="#1E293B" stroke-width="1.92216"/>
<path d="M12.7646 3.23438C12.7646 3.23438 12.5871 6.25335 14.503 9.88591C15.0895 10.998 15.7287 11.8953 16.3332 12.6051M4.80029 8.2678C4.80029 8.2678 7.27751 9.60896 9.19343 13.2415C11.1093 16.8741 10.9318 19.8931 10.9318 19.8931" stroke="#1E293B" stroke-width="1.92216"/>
<path d="M16.9741 23.0966L23.3813 16.6895" stroke="#1E293B" stroke-width="1.92216" stroke-linecap="round"/>
<path d="M20.8184 16.6895L23.3812 19.2523" stroke="#1E293B" stroke-width="1.92216" stroke-linecap="round"/>
<path d="M16.9741 20.5338L19.537 23.0967" stroke="#1E293B" stroke-width="1.92216" stroke-linecap="round"/>
<path d="M18.896 18.6116L21.4589 21.1744" stroke="#1E293B" stroke-width="1.92216" stroke-linecap="round"/>
</svg>
