<svg width="32" height="32" viewBox="0 0 32 32" fill="none" xmlns="http://www.w3.org/2000/svg">
<path d="M21.1517 11.0311C18.5652 11.2799 15.8165 12.0555 13.907 13.9651C11.9974 15.8746 11.2218 18.6233 10.973 21.2098M21.1517 11.0311C22.6498 10.8869 24.0934 10.9195 25.2881 11.0109C27.1537 11.1535 28.5937 12.5936 28.7364 14.4591C28.8277 15.6538 28.8603 17.0975 28.7162 18.5955M21.1517 11.0311L28.7162 18.5955M28.7162 18.5955C28.4673 21.182 27.6917 23.9307 25.7822 25.8403C23.8726 27.7498 21.1239 28.5254 18.5374 28.7743M18.5374 28.7743C17.0394 28.9184 15.5957 28.8858 14.401 28.7945C12.5355 28.6518 11.0954 27.2118 10.9528 25.3462C10.8614 24.1516 10.8288 22.7079 10.973 21.2098M18.5374 28.7743L10.973 21.2098" stroke="#004AA9" stroke-width="1.92216" stroke-linecap="round"/>
<path d="M19.8385 11.2552C19.7895 9.94374 19.429 8.62468 18.7271 7.40902C17.3648 5.04944 15.0222 3.60873 12.5107 3.30431C10.7826 3.09483 8.97454 3.42338 7.35091 4.36078C3.36772 6.66048 2.00297 11.7538 4.30267 15.737C5.76536 18.2704 8.35817 19.7446 11.0767 19.8904" stroke="#004AA9" stroke-width="1.92216"/>
<path d="M12.4316 3.24365C12.4316 3.24365 12.254 6.26262 14.17 9.89519C14.7565 11.0073 15.3956 11.9046 16.0002 12.6144M4.46729 8.27708C4.46729 8.27708 6.9445 9.61824 8.86042 13.2508C10.7763 16.8834 10.5988 19.9023 10.5988 19.9023" stroke="#004AA9" stroke-width="1.92216"/>
<path d="M16.6411 23.1059L23.0483 16.6987" stroke="#004AA9" stroke-width="1.92216" stroke-linecap="round"/>
<path d="M20.4854 16.6987L23.0482 19.2616" stroke="#004AA9" stroke-width="1.92216" stroke-linecap="round"/>
<path d="M16.6411 20.5435L19.204 23.1063" stroke="#004AA9" stroke-width="1.92216" stroke-linecap="round"/>
<path d="M18.563 18.6211L21.1259 21.184" stroke="#004AA9" stroke-width="1.92216" stroke-linecap="round"/>
</svg>
