<svg width="25" height="24" viewBox="0 0 25 24" fill="none" xmlns="http://www.w3.org/2000/svg">
<path fill-rule="evenodd" clip-rule="evenodd" d="M2.85257 7.82274C2.33337 8.77128 2.33337 9.91549 2.33337 12.2039V13.725C2.33337 17.6258 2.33337 19.5763 3.50495 20.7881C4.67652 22 6.56214 22 10.3334 22H14.3334C18.1046 22 19.9902 22 21.1618 20.7881C22.3334 19.5763 22.3334 17.6258 22.3334 13.725V12.2039C22.3334 9.91549 22.3334 8.77128 21.8142 7.82274C21.295 6.87421 20.3464 6.28551 18.4493 5.10812L16.4493 3.86687C14.444 2.62229 13.4413 2 12.3334 2C11.2254 2 10.2228 2.62229 8.21741 3.86687L6.21741 5.10813C4.32032 6.28551 3.37177 6.87421 2.85257 7.82274ZM9.33337 17.25C8.91916 17.25 8.58337 17.5858 8.58337 18C8.58337 18.4142 8.91916 18.75 9.33337 18.75H15.3334C15.7476 18.75 16.0834 18.4142 16.0834 18C16.0834 17.5858 15.7476 17.25 15.3334 17.25H9.33337Z" fill="#020617"/>
</svg>
