<svg width="25" height="24" viewBox="0 0 25 24" fill="none" xmlns="http://www.w3.org/2000/svg">
<path fill-rule="evenodd" clip-rule="evenodd" d="M2.33337 12.5V11.5C2.33337 8.21252 2.33337 6.56878 3.24133 5.46243C3.40755 5.25989 3.59326 5.07418 3.7958 4.90796C4.90215 4 6.54589 4 9.83337 4C13.1209 4 14.7646 4 15.8709 4.90796C16.0735 5.07418 16.2592 5.25989 16.4254 5.46243C17.127 6.3173 17.2865 7.49303 17.3227 9.50002L17.9917 9.17082C19.9376 8.19788 20.9106 7.7114 21.622 8.15107C22.3334 8.59075 22.3334 9.67853 22.3334 11.8541V12.1459C22.3334 14.3215 22.3334 15.4093 21.622 15.8489C20.9106 16.2886 19.9376 15.8021 17.9917 14.8292L17.3227 14.5C17.2865 16.507 17.127 17.6827 16.4254 18.5376C16.2592 18.7401 16.0735 18.9258 15.8709 19.092C14.7646 20 13.1209 20 9.83337 20C6.54589 20 4.90215 20 3.7958 19.092C3.59326 18.9258 3.40755 18.7401 3.24133 18.5376C2.33337 17.4312 2.33337 15.7875 2.33337 12.5ZM13.894 9.56066C14.4798 8.97487 14.4798 8.02513 13.894 7.43934C13.3082 6.85355 12.3585 6.85355 11.7727 7.43934C11.1869 8.02513 11.1869 8.97487 11.7727 9.56066C12.3585 10.1464 13.3082 10.1464 13.894 9.56066Z" fill="#020617"/>
</svg>
