<svg width="25" height="25" viewBox="0 0 25 25" fill="none" xmlns="http://www.w3.org/2000/svg">
<path d="M16.6867 8.57683C14.6683 8.77102 12.5232 9.37629 11.0331 10.8665C9.54292 12.3566 8.93764 14.5016 8.74346 16.5201M16.6867 8.57683C17.8557 8.46436 18.9823 8.4898 19.9146 8.56108C21.3704 8.67239 22.4942 9.79618 22.6055 11.252C22.6768 12.1843 22.7023 13.3109 22.5898 14.4799M16.6867 8.57683L22.5898 14.4799M22.5898 14.4799C22.3956 16.4984 21.7903 18.6434 20.3002 20.1336C18.81 21.6237 16.665 22.229 14.6466 22.4232M14.6466 22.4232C13.4775 22.5356 12.3509 22.5102 11.4186 22.4389C9.96281 22.3276 8.83901 21.2038 8.7277 19.748C8.65642 18.8157 8.63099 17.6891 8.74346 16.5201M14.6466 22.4232L8.74346 16.5201" stroke="#1C274C" stroke-width="1.5" stroke-linecap="round"/>
<path d="M15.6621 8.75203C15.6239 7.72857 15.3426 6.69921 14.7949 5.75054C13.7317 3.90919 11.9036 2.78489 9.94376 2.54733C8.59517 2.38387 7.1842 2.64025 5.91717 3.37177C2.80879 5.1664 1.74377 9.14107 3.5384 12.2495C4.67984 14.2265 6.7032 15.3769 8.82465 15.4907" stroke="#1C274C" stroke-width="1.5"/>
<path d="M9.88177 2.5C9.88177 2.5 9.74321 4.85593 11.2383 7.69068C11.6961 8.55852 12.1948 9.25876 12.6666 9.8127M3.66663 6.42795C3.66663 6.42795 5.59978 7.47456 7.09491 10.3093C8.59004 13.1441 8.45148 15.5 8.45148 15.5" stroke="#1C274C" stroke-width="1.5"/>
<path d="M13.1666 18L18.1666 13" stroke="#1C274C" stroke-width="1.5" stroke-linecap="round"/>
<path d="M16.1666 13L18.1666 15" stroke="#1C274C" stroke-width="1.5" stroke-linecap="round"/>
<path d="M13.1666 16L15.1666 18" stroke="#1C274C" stroke-width="1.5" stroke-linecap="round"/>
<path d="M14.6666 14.5L16.6666 16.5" stroke="#1C274C" stroke-width="1.5" stroke-linecap="round"/>
</svg>
