<svg width="17" height="16" viewBox="0 0 17 16" fill="none" xmlns="http://www.w3.org/2000/svg">
<path d="M1.66663 13.333H15V14.6663H1.66663V13.333ZM2.99996 7.99967H4.33329V12.6663H2.99996V7.99967ZM6.33329 7.99967H7.66663V12.6663H6.33329V7.99967ZM8.99996 7.99967H10.3333V12.6663H8.99996V7.99967ZM12.3333 7.99967H13.6666V12.6663H12.3333V7.99967ZM1.66663 4.66634L8.33329 1.33301L15 4.66634V7.33301H1.66663V4.66634ZM2.99996 5.49034V5.99967H13.6666V5.49034L8.33329 2.82367L2.99996 5.49034ZM8.33329 5.33301C8.15648 5.33301 7.98691 5.26277 7.86189 5.13775C7.73686 5.01272 7.66663 4.84315 7.66663 4.66634C7.66663 4.48953 7.73686 4.31996 7.86189 4.19494C7.98691 4.06991 8.15648 3.99967 8.33329 3.99967C8.5101 3.99967 8.67967 4.06991 8.8047 4.19494C8.92972 4.31996 8.99996 4.48953 8.99996 4.66634C8.99996 4.84315 8.92972 5.01272 8.8047 5.13775C8.67967 5.26277 8.5101 5.33301 8.33329 5.33301Z" fill="black"/>
</svg>
