<svg width="25" height="24" viewBox="0 0 25 24" fill="none" xmlns="http://www.w3.org/2000/svg">
<path d="M19.6666 9.7041V9C19.6666 5.13401 16.5326 2 12.6666 2C8.80057 2 5.66657 5.13401 5.66657 9V9.7041C5.66657 10.5491 5.41645 11.3752 4.94773 12.0783L3.79913 13.8012C2.75 15.3749 3.55092 17.5139 5.37563 18.0116C10.1491 19.3134 15.1841 19.3134 19.9575 18.0116C21.7822 17.5139 22.5831 15.3749 21.534 13.8012L20.3854 12.0783C19.9167 11.3752 19.6666 10.5491 19.6666 9.7041Z" stroke="#1C274C" stroke-width="1.5"/>
<path d="M8.16663 19C8.82165 20.7478 10.5891 22 12.6666 22C14.7442 22 16.5116 20.7478 17.1666 19" stroke="#1C274C" stroke-width="1.5" stroke-linecap="round"/>
</svg>
