<svg width="32" height="32" viewBox="0 0 32 32" fill="none" xmlns="http://www.w3.org/2000/svg">
<path d="M3.18555 3.13708H28.8143" stroke="#1E293B" stroke-width="1.92216" stroke-linecap="round"/>
<path d="M12.1553 14.0293L13.812 12.3725C14.2392 11.9454 14.4528 11.7318 14.7181 11.7318C14.9835 11.7318 15.1971 11.9454 15.6243 12.3725L16.3749 13.1232C16.8021 13.5503 17.0156 13.7639 17.281 13.7639C17.5464 13.7639 17.76 13.5503 18.1871 13.1232L19.8439 11.4664" stroke="#1E293B" stroke-width="1.92216" stroke-linecap="round"/>
<path d="M16 27.4844L16 22.3586" stroke="#1E293B" stroke-width="1.92216" stroke-linecap="round"/>
<path d="M13.437 28.7658L15.9999 27.4844" stroke="#1E293B" stroke-width="1.92216" stroke-linecap="round"/>
<path d="M18.5629 28.7658L16 27.4844" stroke="#1E293B" stroke-width="1.92216" stroke-linecap="round"/>
<path d="M26.2515 3.13708V14.0293C26.2515 17.9558 26.2515 19.919 24.9647 21.1388C23.6779 22.3586 21.6068 22.3586 17.4645 22.3586H14.5355C10.3933 22.3586 8.32219 22.3586 7.03536 21.1388C5.74854 19.919 5.74854 17.9558 5.74854 14.0293V3.13708" stroke="#1E293B" stroke-width="1.92216"/>
</svg>
