<svg width="21" height="22" viewBox="0 0 21 22" fill="none" xmlns="http://www.w3.org/2000/svg">
<path d="M12.0477 19.5714H8.6191C5.38662 19.5714 3.77037 19.5714 2.76617 18.5672C1.76196 17.563 1.76196 15.9467 1.76196 12.7143V11C1.76196 7.76748 1.76196 6.15123 2.76617 5.14703C3.77037 4.14282 5.38662 4.14282 8.61911 4.14282H12.0477C15.2802 4.14282 16.8964 4.14282 17.9006 5.14703C18.9048 6.15123 18.9048 7.76748 18.9048 11V12.7143C18.9048 15.9467 18.9048 17.563 17.9006 18.5672C17.3407 19.1271 16.5906 19.3748 15.4762 19.4844" stroke="#1C274C" stroke-width="1.28571" stroke-linecap="round"/>
<path d="M6.04761 4.14289V2.85718" stroke="#1C274C" stroke-width="1.28571" stroke-linecap="round"/>
<path d="M14.6191 4.14289V2.85718" stroke="#1C274C" stroke-width="1.28571" stroke-linecap="round"/>
<path d="M18.4761 8.42871H14.2975H9.26179M1.76179 8.42871H5.08322" stroke="#1C274C" stroke-width="1.28571" stroke-linecap="round"/>
<path d="M15.4762 15.2857C15.4762 15.7591 15.0925 16.1429 14.6191 16.1429C14.1457 16.1429 13.762 15.7591 13.762 15.2857C13.762 14.8123 14.1457 14.4286 14.6191 14.4286C15.0925 14.4286 15.4762 14.8123 15.4762 15.2857Z" fill="#1C274C"/>
<path d="M15.4762 11.8571C15.4762 12.3305 15.0925 12.7143 14.6191 12.7143C14.1457 12.7143 13.762 12.3305 13.762 11.8571C13.762 11.3838 14.1457 11 14.6191 11C15.0925 11 15.4762 11.3838 15.4762 11.8571Z" fill="#1C274C"/>
<path d="M11.1904 15.2857C11.1904 15.7591 10.8066 16.1429 10.3332 16.1429C9.85983 16.1429 9.47607 15.7591 9.47607 15.2857C9.47607 14.8123 9.85983 14.4286 10.3332 14.4286C10.8066 14.4286 11.1904 14.8123 11.1904 15.2857Z" fill="#1C274C"/>
<path d="M11.1904 11.8571C11.1904 12.3305 10.8066 12.7143 10.3332 12.7143C9.85983 12.7143 9.47607 12.3305 9.47607 11.8571C9.47607 11.3838 9.85983 11 10.3332 11C10.8066 11 11.1904 11.3838 11.1904 11.8571Z" fill="#1C274C"/>
<path d="M6.90472 15.2857C6.90472 15.7591 6.52096 16.1429 6.04757 16.1429C5.57419 16.1429 5.19043 15.7591 5.19043 15.2857C5.19043 14.8123 5.57419 14.4286 6.04757 14.4286C6.52096 14.4286 6.90472 14.8123 6.90472 15.2857Z" fill="#1C274C"/>
<path d="M6.90472 11.8571C6.90472 12.3305 6.52096 12.7143 6.04757 12.7143C5.57419 12.7143 5.19043 12.3305 5.19043 11.8571C5.19043 11.3838 5.57419 11 6.04757 11C6.52096 11 6.90472 11.3838 6.90472 11.8571Z" fill="#1C274C"/>
</svg>
