<svg width="19" height="19" viewBox="0 0 19 19" fill="none" xmlns="http://www.w3.org/2000/svg">
<path d="M2.27771 9.25C2.27771 6.42157 2.27771 5.00736 3.15639 4.12868C4.03507 3.25 5.44928 3.25 8.27771 3.25H11.2777C14.1061 3.25 15.5204 3.25 16.399 4.12868C17.2777 5.00736 17.2777 6.42157 17.2777 9.25V10.75C17.2777 13.5784 17.2777 14.9926 16.399 15.8713C15.5204 16.75 14.1061 16.75 11.2777 16.75H8.27771C5.44928 16.75 4.03507 16.75 3.15639 15.8713C2.27771 14.9926 2.27771 13.5784 2.27771 10.75V9.25Z" stroke="#0F172A" stroke-width="1.125"/>
<path d="M6.02771 3.25V2.125" stroke="#0F172A" stroke-width="1.125" stroke-linecap="round"/>
<path d="M13.5277 3.25V2.125" stroke="#0F172A" stroke-width="1.125" stroke-linecap="round"/>
<path d="M2.65271 7H16.9027" stroke="#0F172A" stroke-width="1.125" stroke-linecap="round"/>
<path d="M13.5277 12.625C13.7348 12.625 13.9027 12.7929 13.9027 13C13.9027 13.2071 13.7348 13.375 13.5277 13.375C13.3206 13.375 13.1527 13.2071 13.1527 13C13.1527 12.7929 13.3206 12.625 13.5277 12.625ZM13.5277 9.625C13.7348 9.625 13.9027 9.79289 13.9027 10C13.9027 10.2071 13.7348 10.375 13.5277 10.375C13.3206 10.375 13.1527 10.2071 13.1527 10C13.1527 9.79289 13.3206 9.625 13.5277 9.625Z" fill="#1C274C" stroke="#0F172A" stroke-width="0.75"/>
<path d="M9.77771 12.625C9.98482 12.625 10.1527 12.7929 10.1527 13C10.1527 13.2071 9.98482 13.375 9.77771 13.375C9.5706 13.375 9.40271 13.2071 9.40271 13C9.40271 12.7929 9.5706 12.625 9.77771 12.625ZM9.77771 9.625C9.98482 9.625 10.1527 9.79289 10.1527 10C10.1527 10.2071 9.98482 10.375 9.77771 10.375C9.5706 10.375 9.40271 10.2071 9.40271 10C9.40271 9.79289 9.5706 9.625 9.77771 9.625Z" fill="#1C274C" stroke="#0F172A" stroke-width="0.75"/>
<path d="M6.02771 12.625C6.23482 12.625 6.40271 12.7929 6.40271 13C6.40271 13.2071 6.23482 13.375 6.02771 13.375C5.8206 13.375 5.65271 13.2071 5.65271 13C5.65271 12.7929 5.8206 12.625 6.02771 12.625ZM6.02771 9.625C6.23482 9.625 6.40271 9.79289 6.40271 10C6.40271 10.2071 6.23482 10.375 6.02771 10.375C5.8206 10.375 5.65271 10.2071 5.65271 10C5.65271 9.79289 5.8206 9.625 6.02771 9.625Z" fill="#1C274C" stroke="#0F172A" stroke-width="0.75"/>
</svg>
