<svg width="44" height="44" viewBox="0 0 44 44" fill="none" xmlns="http://www.w3.org/2000/svg">
<rect x="2" y="2" width="40" height="40" rx="20" fill="#5488CB"/>
<rect x="2" y="2" width="40" height="40" rx="20" stroke="white" stroke-width="4"/>
<path fill-rule="evenodd" clip-rule="evenodd" d="M12 19V28C12 29.1046 12.8954 30 14 30H30C31.1046 30 32 29.1046 32 28V19C32 17.8954 31.1046 17 30 17H28.0704C27.4017 17 26.7772 16.6658 26.4063 16.1094L25.5937 14.8906C25.2228 14.3342 24.5983 14 23.9296 14H20.0704C19.4017 14 18.7772 14.3342 18.4063 14.8906L17.5937 16.1094C17.2228 16.6658 16.5983 17 15.9296 17H14C12.8954 17 12 17.8954 12 19ZM22 26C23.6569 26 25 24.6569 25 23C25 21.3431 23.6569 20 22 20C20.3431 20 19 21.3431 19 23C19 24.6569 20.3431 26 22 26Z" fill="white"/>
</svg>
