<svg width="50" height="50" viewBox="0 0 50 50" fill="none" xmlns="http://www.w3.org/2000/svg">
<rect x="0.666626" y="1" width="48" height="48" rx="8" fill="white"/>
<rect x="0.666626" y="1" width="48" height="48" rx="8" stroke="#E2E8F0"/>
<path d="M14.6666 25C14.6666 21.2288 14.6666 19.3431 15.8382 18.1716C17.0098 17 18.8954 17 22.6666 17H26.6666C30.4378 17 32.3235 17 33.495 18.1716C34.6666 19.3431 34.6666 21.2288 34.6666 25V27C34.6666 30.7712 34.6666 32.6569 33.495 33.8284C32.3235 35 30.4378 35 26.6666 35H22.6666C18.8954 35 17.0098 35 15.8382 33.8284C14.6666 32.6569 14.6666 30.7712 14.6666 27V25Z" stroke="#1C274C" stroke-width="1.5"/>
<path d="M19.6666 17V15.5" stroke="#1C274C" stroke-width="1.5" stroke-linecap="round"/>
<path d="M29.6666 17V15.5" stroke="#1C274C" stroke-width="1.5" stroke-linecap="round"/>
<path d="M29.1666 31C29.9951 31 30.6666 30.3284 30.6666 29.5C30.6666 28.6716 29.9951 28 29.1666 28C28.3382 28 27.6666 28.6716 27.6666 29.5C27.6666 30.3284 28.3382 31 29.1666 31Z" stroke="#1C274C" stroke-width="1.5"/>
<path d="M15.1666 22H34.1666" stroke="#1C274C" stroke-width="1.5" stroke-linecap="round"/>
</svg>
