<svg width="25" height="24" viewBox="0 0 25 24" fill="none" xmlns="http://www.w3.org/2000/svg">
<path d="M22.6657 11C22.6566 7.8857 22.5581 6.23467 21.4951 5.17157C20.3235 4 18.4379 4 14.6666 4H10.6666C6.89539 4 5.00977 4 3.8382 5.17157C2.66663 6.34315 2.66663 8.22876 2.66663 12C2.66663 15.7712 2.66663 17.6569 3.8382 18.8284C5.00977 20 6.89539 20 10.6666 20H12.1666" stroke="#1C274C" stroke-width="1.5" stroke-linecap="round"/>
<path d="M16.1666 14V20M16.1666 20L18.1666 18M16.1666 20L14.1666 18M20.6666 20V14M20.6666 14L22.6666 16M20.6666 14L18.6666 16" stroke="#1C274C" stroke-width="1.5" stroke-linecap="round" stroke-linejoin="round"/>
<path d="M10.6666 16H6.66663" stroke="#1C274C" stroke-width="1.5" stroke-linecap="round"/>
<path d="M2.66663 10L22.6666 10" stroke="#1C274C" stroke-width="1.5" stroke-linecap="round"/>
</svg>
