<svg width="25" height="24" viewBox="0 0 25 24" fill="none" xmlns="http://www.w3.org/2000/svg">
<path d="M13.7533 21.3877L14.3987 21.7697L13.7533 21.3877ZM14.2954 20.4718L13.65 20.0898L14.2954 20.4718ZM11.0378 20.4718L10.3924 20.8539H10.3924L11.0378 20.4718ZM11.5799 21.3877L12.2253 21.0057L11.5799 21.3877ZM14.1666 2.75C14.5808 2.75 14.9166 2.41421 14.9166 2C14.9166 1.58579 14.5808 1.25 14.1666 1.25V2.75ZM23.4166 10.5C23.4166 10.0858 23.0808 9.75 22.6666 9.75C22.2524 9.75 21.9166 10.0858 21.9166 10.5H23.4166ZM3.04723 15.9134L3.74014 15.6264V15.6264L3.04723 15.9134ZM8.4562 18.9915L8.44328 19.7413L8.4562 18.9915ZM5.75321 18.6194L5.4662 19.3123H5.4662L5.75321 18.6194ZM22.286 15.9134L22.9789 16.2004V16.2004L22.286 15.9134ZM16.877 18.9915L16.8641 18.2416L16.877 18.9915ZM19.58 18.6194L19.8671 19.3123H19.8671L19.58 18.6194ZM5.05413 2.7368L4.66226 2.09732V2.09732L5.05413 2.7368ZM3.40343 4.38751L2.76395 3.99563H2.76395L3.40343 4.38751ZM10.0694 19.2098L10.4465 18.5615L10.4465 18.5615L10.0694 19.2098ZM13.7533 21.3877L14.3987 21.7697L14.9408 20.8539L14.2954 20.4718L13.65 20.0898L13.1079 21.0057L13.7533 21.3877ZM11.0378 20.4718L10.3924 20.8539L10.9345 21.7697L11.5799 21.3877L12.2253 21.0057L11.6832 20.0898L11.0378 20.4718ZM13.7533 21.3877L13.1079 21.0057C12.9151 21.3313 12.4181 21.3313 12.2253 21.0057L11.5799 21.3877L10.9345 21.7697C11.7081 23.0767 13.6251 23.0767 14.3987 21.7697L13.7533 21.3877ZM11.1666 2V2.75H14.1666V2V1.25H11.1666V2ZM22.6666 10.5H21.9166V11.5H22.6666H23.4166V10.5H22.6666ZM2.66663 11.5H3.41663V10.5H2.66663H1.91663V11.5H2.66663ZM2.66663 11.5H1.91663C1.91663 12.6546 1.91622 13.5581 1.96594 14.2868C2.01612 15.0223 2.11985 15.6344 2.35432 16.2004L3.04723 15.9134L3.74014 15.6264C3.594 15.2736 3.50743 14.8438 3.46246 14.1847C3.41703 13.5189 3.41663 12.6751 3.41663 11.5H2.66663ZM8.4562 18.9915L8.46913 18.2416C7.21369 18.2199 6.55586 18.1401 6.04022 17.9265L5.75321 18.6194L5.4662 19.3123C6.27117 19.6457 7.188 19.7197 8.44328 19.7413L8.4562 18.9915ZM3.04723 15.9134L2.35432 16.2004C2.93791 17.6093 4.05728 18.7287 5.4662 19.3123L5.75321 18.6194L6.04022 17.9265C4.99885 17.4951 4.17149 16.6678 3.74014 15.6264L3.04723 15.9134ZM22.6666 11.5H21.9166C21.9166 12.6751 21.9162 13.5189 21.8708 14.1847C21.8258 14.8438 21.7393 15.2736 21.5931 15.6264L22.286 15.9134L22.9789 16.2004C23.2134 15.6344 23.3171 15.0223 23.3673 14.2868C23.417 13.5581 23.4166 12.6546 23.4166 11.5H22.6666ZM16.877 18.9915L16.8899 19.7413C18.1452 19.7197 19.0621 19.6457 19.8671 19.3123L19.58 18.6194L19.293 17.9265C18.7774 18.1401 18.1195 18.2199 16.8641 18.2416L16.877 18.9915ZM22.286 15.9134L21.5931 15.6264C21.1618 16.6678 20.3344 17.4951 19.293 17.9265L19.58 18.6194L19.8671 19.3123C21.276 18.7287 22.3953 17.6093 22.9789 16.2004L22.286 15.9134ZM11.1666 2V1.25C9.54443 1.25 8.27512 1.24921 7.26273 1.34547C6.23918 1.44279 5.40108 1.64457 4.66226 2.09732L5.05413 2.7368L5.44601 3.37628C5.90953 3.09223 6.49096 2.92561 7.40471 2.83873C8.32963 2.75079 9.51539 2.75 11.1666 2.75V2ZM2.66663 10.5H3.41663C3.41663 8.84876 3.41742 7.663 3.50536 6.73809C3.59224 5.82434 3.75886 5.24291 4.04291 4.77938L3.40343 4.38751L2.76395 3.99563C2.31119 4.73445 2.10941 5.57256 2.01209 6.59611C1.91583 7.6085 1.91663 8.87781 1.91663 10.5H2.66663ZM5.05413 2.7368L4.66226 2.09732C3.88857 2.57144 3.23807 3.22194 2.76395 3.99563L3.40343 4.38751L4.04291 4.77938C4.39334 4.20752 4.87415 3.72672 5.44601 3.37628L5.05413 2.7368ZM11.0378 20.4718L11.6832 20.0898C11.4802 19.7468 11.302 19.4441 11.1287 19.2063C10.9462 18.9559 10.7368 18.7304 10.4465 18.5615L10.0694 19.2098L9.69234 19.8582C9.73975 19.8857 9.80434 19.936 9.91648 20.0898C10.0378 20.2564 10.175 20.4865 10.3924 20.8539L11.0378 20.4718ZM8.4562 18.9915L8.44328 19.7413C8.88238 19.7489 9.1605 19.7545 9.37251 19.7779C9.57061 19.7999 9.64741 19.832 9.69235 19.8582L10.0694 19.2098L10.4465 18.5615C10.1537 18.3912 9.84909 18.3215 9.5376 18.287C9.24001 18.2541 8.88037 18.2487 8.46913 18.2416L8.4562 18.9915ZM14.2954 20.4718L14.9408 20.8539C15.1582 20.4865 15.2954 20.2564 15.4167 20.0898C15.5289 19.936 15.5935 19.8857 15.6409 19.8582L15.2638 19.2098L14.8867 18.5615C14.5964 18.7304 14.3871 18.9559 14.2045 19.2063C14.0312 19.4441 13.853 19.7468 13.65 20.0898L14.2954 20.4718ZM16.877 18.9915L16.8641 18.2416C16.4528 18.2487 16.0932 18.2541 15.7956 18.287C15.4841 18.3215 15.1795 18.3912 14.8867 18.5615L15.2638 19.2098L15.6409 19.8582C15.6858 19.832 15.7626 19.7999 15.9607 19.7779C16.1727 19.7545 16.4508 19.7489 16.8899 19.7413L16.877 18.9915Z" fill="#1C274C"/>
<circle cx="19.6666" cy="5" r="3" stroke="#1C274C" stroke-width="1.5"/>
</svg>
