<svg width="17" height="16" viewBox="0 0 17 16" fill="none" xmlns="http://www.w3.org/2000/svg">
<path fill-rule="evenodd" clip-rule="evenodd" d="M8.6665 14C11.9802 14 14.6665 11.3137 14.6665 8C14.6665 4.68629 11.9802 2 8.6665 2C5.3528 2 2.6665 4.68629 2.6665 8C2.6665 11.3137 5.3528 14 8.6665 14ZM11.8045 6.19499C11.5443 5.93491 11.1225 5.93502 10.8621 6.19499L7.99984 9.05729L6.47152 7.52897L6.36702 7.44303C6.10824 7.27204 5.75602 7.30111 5.52816 7.52897C5.30062 7.75682 5.27234 8.10821 5.4432 8.36686L5.52816 8.47135L7.29281 10.236C7.68328 10.6263 8.31639 10.6263 8.70687 10.236L11.8045 7.13835C12.0649 6.878 12.0649 6.45534 11.8045 6.19499Z" fill="#334155"/>
</svg>
