<svg width="24" height="24" viewBox="0 0 24 24" fill="none" xmlns="http://www.w3.org/2000/svg">
<path fill-rule="evenodd" clip-rule="evenodd" d="M12 21C16.9706 21 21 16.9706 21 12C21 7.02944 16.9706 3 12 3C7.02944 3 3 7.02944 3 12C3 16.9706 7.02944 21 12 21ZM16.707 9.29297C16.3165 8.90244 15.6835 8.90244 15.293 9.29297L11 13.5859L8.70703 11.293L8.63086 11.2246C8.23809 10.9043 7.65908 10.9269 7.29297 11.293C6.90244 11.6835 6.90244 12.3165 7.29297 12.707L9.93945 15.3535C10.5252 15.9393 11.4748 15.9393 12.0605 15.3535L16.707 10.707C17.0976 10.3165 17.0976 9.68349 16.707 9.29297Z" fill="black"/>
</svg>
