<svg width="25" height="24" viewBox="0 0 25 24" fill="none" xmlns="http://www.w3.org/2000/svg">
<rect width="25" height="24" fill="#1E1E1E"/>
<rect x="-788" y="-3503" width="4640" height="5555" rx="16" fill="#101010"/>
<g clip-path="url(#clip0_626_66619)">
<rect width="1280" height="832" transform="translate(-588 -290)" fill="white"/>
<g clip-path="url(#clip1_626_66619)">
<g clip-path="url(#clip2_626_66619)">
<path d="M-74.8334 -100C-74.8334 -106.627 -69.4608 -112 -62.8334 -112H283.667C290.294 -112 295.667 -106.627 295.667 -100V80C295.667 86.6274 290.294 92 283.667 92H-62.8334C-69.4608 92 -74.8334 86.6274 -74.8334 80V-100Z" fill="#F8FAFC"/>
<path d="M12.9342 125.435C41.4493 -269.666 124.872 32.861 213.513 14.8564C324.314 -7.64937 338.979 128.635 374.012 -70.1654C409.045 -268.966 382.159 -301.474 468.519 -295.223" stroke="white" stroke-opacity="0.03" stroke-width="2"/>
<path d="M-3.36267 75.4222C25.1524 -319.679 108.575 -17.1517 197.216 -35.1563C308.018 -57.6621 322.682 78.6228 357.715 -120.178C392.748 -318.979 365.862 -351.487 452.222 -345.236" stroke="white" stroke-opacity="0.03" stroke-width="2"/>
<path d="M-19.6556 25.4085C8.85945 -369.693 92.282 -67.1654 180.923 -85.17C291.725 -107.676 306.389 28.6091 341.422 -170.192C376.455 -368.993 349.569 -401.501 435.929 -395.249" stroke="white" stroke-opacity="0.03" stroke-width="2"/>
<path d="M-62.8334 -4.76837e-07C-62.8334 -4.41828 -59.2517 -8 -54.8334 -8H275.667C280.085 -8 283.667 -4.41828 283.667 0V24C283.667 28.4183 280.085 32 275.667 32H-54.8334C-59.2516 32 -62.8334 28.4183 -62.8334 24V-4.76837e-07Z" fill="#F1F5F9"/>
<circle cx="12.9166" cy="12" r="10" stroke="#CBD5E1" stroke-width="1.5"/>
<path d="M12.9166 8V12L15.4166 14.5" stroke="#CBD5E1" stroke-width="1.5" stroke-linecap="round" stroke-linejoin="round"/>
</g>
<path d="M-62.8334 -111.5H283.667C290.018 -111.5 295.167 -106.351 295.167 -100V80C295.167 86.3513 290.018 91.5 283.667 91.5H-62.8334C-69.1846 91.5 -74.3334 86.3513 -74.3334 80V-100C-74.3334 -106.351 -69.1846 -111.5 -62.8334 -111.5Z" stroke="#F1F5F9"/>
</g>
</g>
<defs>
<clipPath id="clip0_626_66619">
<rect width="1280" height="832" fill="white" transform="translate(-588 -290)"/>
</clipPath>
<clipPath id="clip1_626_66619">
<rect width="1173.33" height="832" fill="white" transform="translate(-481.333 -290)"/>
</clipPath>
<clipPath id="clip2_626_66619">
<path d="M-74.8334 -100C-74.8334 -106.627 -69.4608 -112 -62.8334 -112H283.667C290.294 -112 295.667 -106.627 295.667 -100V80C295.667 86.6274 290.294 92 283.667 92H-62.8334C-69.4608 92 -74.8334 86.6274 -74.8334 80V-100Z" fill="white"/>
</clipPath>
</defs>
</svg>
