<svg width="25" height="24" viewBox="0 0 25 24" fill="none" xmlns="http://www.w3.org/2000/svg">
<path d="M21.4983 10C21.4862 7.82497 21.3897 6.64706 20.6213 5.87868C19.7426 5 18.3284 5 15.5 5H12.5C9.67157 5 8.25736 5 7.37868 5.87868C6.5 6.75736 6.5 8.17157 6.5 11V16C6.5 18.8284 6.5 20.2426 7.37868 21.1213C8.25736 22 9.67157 22 12.5 22H15.5C18.3284 22 19.7426 22 20.6213 21.1213C21.5 20.2426 21.5 18.8284 21.5 16V15" stroke="#020617" stroke-width="1.5" stroke-linecap="round"/>
<path d="M3.5 10V16C3.5 17.6569 4.84315 19 6.5 19M18.5 5C18.5 3.34315 17.1569 2 15.5 2H11.5C7.72876 2 5.84315 2 4.67157 3.17157C4.01839 3.82475 3.72937 4.69989 3.60149 6" stroke="#1C274C" stroke-width="1.5" stroke-linecap="round"/>
</svg>
