<svg width="32" height="32" viewBox="0 0 32 32" fill="none" xmlns="http://www.w3.org/2000/svg">
<path d="M5.74854 14.7285H21.1258C23.5421 14.7285 24.7502 14.7285 25.5009 15.4792C26.2515 16.2298 26.2515 17.438 26.2515 19.8543V21.1357C26.2515 24.7602 26.2515 26.5724 25.1256 27.6984C23.9996 28.8243 22.1874 28.8243 18.5629 28.8243H13.4372C9.81271 28.8243 8.00048 28.8243 6.87451 27.6984C5.74854 26.5724 5.74854 24.7602 5.74854 21.1357V14.7285Z" stroke="#004AA9" stroke-width="1.92216"/>
<path d="M5.75009 14.7282C5.13014 12.4145 4.82017 11.2576 5.08677 10.2627C5.26143 9.61083 5.60458 9.01647 6.08175 8.5393C6.81013 7.81092 7.96697 7.50095 10.2807 6.881L19.2545 4.47646C20.1172 4.2453 20.5486 4.12972 20.9264 4.10495C22.4779 4.00326 23.938 4.84621 24.6257 6.24074C24.7931 6.58032 24.9087 7.01168 25.1399 7.87438C25.2169 8.16195 25.2555 8.30574 25.2637 8.43168C25.2976 8.94886 25.0166 9.43554 24.5518 9.66477C24.4386 9.72059 24.2948 9.75912 24.0072 9.83617L5.75009 14.7282Z" stroke="#004AA9" stroke-width="1.92216"/>
<path d="M19.4604 4.40162L18.6432 11.2538" stroke="#004AA9" stroke-width="1.92216" stroke-linecap="round"/>
<path d="M11.4155 6.55787L10.5982 13.4101" stroke="#004AA9" stroke-width="1.92216" stroke-linecap="round"/>
</svg>
