<svg width="32" height="32" viewBox="0 0 32 32" fill="none" xmlns="http://www.w3.org/2000/svg">
<path d="M6.08203 14.7186H21.4593C23.8756 14.7186 25.0837 14.7186 25.8344 15.4693C26.585 16.2199 26.585 17.4281 26.585 19.8444V21.1258C26.585 24.7503 26.585 26.5625 25.4591 27.6885C24.3331 28.8144 22.5209 28.8144 18.8964 28.8144H13.7707C10.1462 28.8144 8.33398 28.8144 7.208 27.6885C6.08203 26.5625 6.08203 24.7503 6.08203 21.1258V14.7186Z" stroke="#1E293B" stroke-width="1.92216"/>
<path d="M6.08359 14.7183C5.46364 12.4046 5.15366 11.2477 5.42027 10.2528C5.59492 9.60094 5.93808 9.00658 6.41525 8.52941C7.14362 7.80103 8.30047 7.49106 10.6142 6.87111L19.588 4.46657C20.4507 4.23541 20.8821 4.11983 21.2599 4.09507C22.8114 3.99337 24.2715 4.83632 24.9592 6.23085C25.1266 6.57043 25.2422 7.00179 25.4734 7.86449C25.5504 8.15206 25.589 8.29585 25.5972 8.42179C25.6311 8.93897 25.3501 9.42565 24.8853 9.65488C24.7721 9.71071 24.6283 9.74923 24.3407 9.82629L6.08359 14.7183Z" stroke="#1E293B" stroke-width="1.92216"/>
<path d="M19.7939 4.3921L18.9767 11.2443" stroke="#1E293B" stroke-width="1.92216" stroke-linecap="round"/>
<path d="M11.748 6.54786L10.9308 13.4" stroke="#1E293B" stroke-width="1.92216" stroke-linecap="round"/>
</svg>
