<svg width="24" height="24" viewBox="0 0 24 24" fill="none" xmlns="http://www.w3.org/2000/svg">
<path d="M20 18.9998C20.5523 18.9998 21 19.4475 21 19.9998C20.9999 20.552 20.5522 20.9998 20 20.9998H4C3.44777 20.9998 3.00008 20.552 3 19.9998C3 19.4475 3.44772 18.9998 4 18.9998H20ZM13.5859 3.99977C14.367 3.21882 15.633 3.21883 16.4141 3.99977L18 5.58571C18.7809 6.36675 18.7809 7.63283 18 8.41384L10 16.4138C9.62497 16.7888 9.11628 16.9997 8.58594 16.9998H7C5.9644 16.9998 5.11307 16.2125 5.01074 15.2039L5 14.9998V13.4138C5.00004 12.8835 5.21095 12.3748 5.58594 11.9998L13.5859 3.99977ZM7 13.4138V14.9998H8.58594L16.5859 6.99977L15 5.41384L7 13.4138Z" fill="#020617"/>
</svg>
