<svg width="37" height="37" viewBox="0 0 37 37" fill="none" xmlns="http://www.w3.org/2000/svg">
<path d="M9.0773 25.8459L11.0869 25.2759C12.9004 24.7616 14.1665 22.9739 14.1665 20.9278C14.1665 20.9278 14.1665 18.4458 18.6665 18.4458C23.1665 18.4458 23.1665 20.9278 23.1665 20.9278C23.1665 22.9739 24.4326 24.7616 26.2461 25.2759L28.2557 25.8459C30.9941 26.6226 33.6665 24.3654 33.6665 21.2756C33.6665 19.4191 33.2516 17.5596 32.0422 16.2548C30.0062 14.0583 25.8767 11 18.6665 11C11.4563 11 7.32685 14.0583 5.29084 16.2548C4.08139 17.5596 3.6665 19.4191 3.6665 21.2756C3.6665 24.3654 6.33887 26.6226 9.0773 25.8459Z" fill="white"/>
</svg>
