<svg width="32" height="32" viewBox="0 0 32 32" fill="none" xmlns="http://www.w3.org/2000/svg">
<path d="M3.18555 3.14648H28.8143" stroke="#004AA9" stroke-width="1.92216" stroke-linecap="round"/>
<path d="M12.1558 14.0389L13.8125 12.3822C14.2397 11.955 14.4532 11.7415 14.7186 11.7415C14.984 11.7415 15.1976 11.955 15.6247 12.3822L16.3754 13.1328C16.8025 13.56 17.0161 13.7736 17.2815 13.7736C17.5469 13.7736 17.7605 13.56 18.1876 13.1328L19.8444 11.4761" stroke="#004AA9" stroke-width="1.92216" stroke-linecap="round"/>
<path d="M16 27.4941L16 22.3684" stroke="#004AA9" stroke-width="1.92216" stroke-linecap="round"/>
<path d="M13.4375 28.7756L16.0004 27.4941" stroke="#004AA9" stroke-width="1.92216" stroke-linecap="round"/>
<path d="M18.5629 28.7756L16 27.4941" stroke="#004AA9" stroke-width="1.92216" stroke-linecap="round"/>
<path d="M26.2515 3.14648V14.0387C26.2515 17.9652 26.2515 19.9284 24.9647 21.1482C23.6779 22.368 21.6068 22.368 17.4645 22.368H14.5355C10.3933 22.368 8.32219 22.368 7.03536 21.1482C5.74854 19.9284 5.74854 17.9652 5.74854 14.0387V3.14648" stroke="#004AA9" stroke-width="1.92216"/>
</svg>
