<svg width="18" height="17" viewBox="0 0 18 17" fill="none" xmlns="http://www.w3.org/2000/svg">
<path d="M7.09538 13.3376L7.4204 12.9253L7.09538 13.3376ZM9.22217 3.95042L8.84391 4.31449C8.94288 4.41732 9.07945 4.47542 9.22217 4.47542C9.36489 4.47542 9.50145 4.41732 9.60042 4.31449L9.22217 3.95042ZM11.349 13.3376L11.674 13.7499L11.349 13.3376ZM7.09538 13.3376L7.4204 12.9253C6.35944 12.0889 5.19932 11.2722 4.27897 10.2358C3.37662 9.21974 2.74717 8.03412 2.74717 6.49594H2.22217H1.69717C1.69717 8.36182 2.47452 9.78521 3.49387 10.933C4.49523 12.0606 5.77171 12.9626 6.77036 13.7499L7.09538 13.3376ZM2.22217 6.49594H2.74717C2.74717 4.99034 3.59793 3.72774 4.75922 3.19691C5.88742 2.68121 7.40333 2.81778 8.84391 4.31449L9.22217 3.95042L9.60042 3.58635C7.89112 1.81044 5.90703 1.51775 4.3227 2.24195C2.77147 2.95102 1.69717 4.5975 1.69717 6.49594H2.22217ZM7.09538 13.3376L6.77036 13.7499C7.12893 14.0325 7.51385 14.334 7.90394 14.5619C8.29387 14.7898 8.73889 14.975 9.22217 14.975V14.45V13.925C9.00545 13.925 8.75047 13.8405 8.4337 13.6554C8.11709 13.4703 7.78862 13.2156 7.4204 12.9253L7.09538 13.3376ZM11.349 13.3376L11.674 13.7499C12.6726 12.9626 13.9491 12.0606 14.9505 10.933C15.9698 9.78521 16.7472 8.36182 16.7472 6.49594H16.2222H15.6972C15.6972 8.03412 15.0677 9.21974 14.1654 10.2358C13.245 11.2722 12.0849 12.0889 11.0239 12.9253L11.349 13.3376ZM16.2222 6.49594H16.7472C16.7472 4.5975 15.6729 2.95102 14.1216 2.24195C12.5373 1.51775 10.5532 1.81044 8.84391 3.58635L9.22217 3.95042L9.60042 4.31449C11.041 2.81778 12.5569 2.68121 13.6851 3.19691C14.8464 3.72774 15.6972 4.99034 15.6972 6.49594H16.2222ZM11.349 13.3376L11.0239 12.9253C10.6557 13.2156 10.3272 13.4703 10.0106 13.6554C9.69387 13.8405 9.43889 13.925 9.22217 13.925V14.45V14.975C9.70545 14.975 10.1505 14.7898 10.5404 14.5619C10.9305 14.334 11.3154 14.0325 11.674 13.7499L11.349 13.3376Z" fill="white"/>
</svg>
