<svg width="22" height="22" viewBox="0 0 22 22" fill="none" xmlns="http://www.w3.org/2000/svg">
<path fill-rule="evenodd" clip-rule="evenodd" d="M5.53534 4.50568C4.11335 5.15567 3.0716 6.70171 3.0716 8.54531C3.0716 10.4288 3.84236 11.8806 4.94728 13.1247C5.85794 14.1502 6.96032 15.0001 8.03542 15.8289C8.29078 16.0258 8.54459 16.2214 8.79393 16.418C9.24481 16.7734 9.64702 17.0854 10.0347 17.3119C10.4226 17.5386 10.7348 17.6421 11.0002 17.6421C11.2655 17.6421 11.5778 17.5386 11.9657 17.3119C12.3533 17.0854 12.7555 16.7734 13.2064 16.418C13.4558 16.2214 13.7096 16.0258 13.9649 15.8289C15.04 15 16.1424 14.1502 17.0531 13.1247C18.158 11.8806 18.9287 10.4288 18.9287 8.54531C18.9287 6.70171 17.887 5.15567 16.465 4.50568C15.0835 3.87421 13.2273 4.04143 11.4633 5.87414C11.3422 6.00005 11.1749 6.0712 11.0002 6.0712C10.8254 6.0712 10.6582 6.00005 10.537 5.87414C8.77303 4.04143 6.9168 3.87421 5.53534 4.50568ZM11.0002 4.53535C9.01841 2.76229 6.79928 2.51426 5.00083 3.33634C3.10136 4.20459 1.78589 6.22068 1.78589 8.54531C1.78589 10.8301 2.73774 12.573 3.98593 13.9785C4.98549 15.104 6.20894 16.046 7.28945 16.878C7.53439 17.0666 7.77199 17.2495 7.99796 17.4277C8.43702 17.7738 8.90836 18.1429 9.38602 18.422C9.86348 18.701 10.4084 18.9278 11.0002 18.9278C11.5919 18.9278 12.1369 18.701 12.6143 18.422C13.092 18.1429 13.5633 17.7738 14.0024 17.4277C14.2284 17.2495 14.466 17.0666 14.7109 16.878C15.7914 16.046 17.0149 15.104 18.0144 13.9785C19.2626 12.573 20.2145 10.8301 20.2145 8.54531C20.2145 6.22068 18.899 4.20459 16.9995 3.33634C15.2011 2.51426 12.9819 2.76229 11.0002 4.53535Z" fill="#1C274C"/>
</svg>
