<svg width="32" height="32" viewBox="0 0 32 32" fill="none" xmlns="http://www.w3.org/2000/svg">
<path d="M28.8143 28.7764L3.18555 28.7764" stroke="#004AA9" stroke-width="1.92216" stroke-linecap="round"/>
<path d="M3.18555 14.6805L13.5984 6.35022C15.0024 5.22701 16.9974 5.22701 18.4014 6.35022L28.8143 14.6805" stroke="#004AA9" stroke-width="1.92216" stroke-linecap="round"/>
<path d="M20.4854 7.63279V5.06992C20.4854 4.71606 20.7722 4.4292 21.1261 4.4292H24.3297C24.6835 4.4292 24.9704 4.71606 24.9704 5.06992V11.4771" stroke="#004AA9" stroke-width="1.92216" stroke-linecap="round"/>
<path d="M5.74854 28.7763V12.7583" stroke="#004AA9" stroke-width="1.92216" stroke-linecap="round"/>
<path d="M26.2515 28.7763V12.7583" stroke="#004AA9" stroke-width="1.92216" stroke-linecap="round"/>
<path d="M19.8444 28.7764V22.3692C19.8444 20.557 19.8444 19.6509 19.2814 19.0879C18.7184 18.5249 17.8123 18.5249 16.0001 18.5249C14.1878 18.5249 13.2817 18.5249 12.7187 19.0879C12.1558 19.6509 12.1558 20.557 12.1558 22.3692V28.7764" stroke="#004AA9" stroke-width="1.92216"/>
<path d="M18.5632 12.7582C18.5632 14.1736 17.4158 15.3211 16.0004 15.3211C14.5849 15.3211 13.4375 14.1736 13.4375 12.7582C13.4375 11.3428 14.5849 10.1953 16.0004 10.1953C17.4158 10.1953 18.5632 11.3428 18.5632 12.7582Z" stroke="#004AA9" stroke-width="1.92216"/>
</svg>
