<svg width="32" height="32" viewBox="0 0 32 32" fill="none" xmlns="http://www.w3.org/2000/svg">
<path d="M28.6473 28.7759L3.01855 28.7759" stroke="#1E293B" stroke-width="1.92216" stroke-linecap="round"/>
<path d="M3.01855 14.68L13.4314 6.34973C14.8354 5.22652 16.8304 5.22652 18.2344 6.34973L28.6473 14.68" stroke="#1E293B" stroke-width="1.92216" stroke-linecap="round"/>
<path d="M20.3184 7.6323V5.06943C20.3184 4.71557 20.6052 4.42871 20.9591 4.42871H24.1627C24.5165 4.42871 24.8034 4.71557 24.8034 5.06943V11.4766" stroke="#1E293B" stroke-width="1.92216" stroke-linecap="round"/>
<path d="M5.58154 28.7758V12.7578" stroke="#1E293B" stroke-width="1.92216" stroke-linecap="round"/>
<path d="M26.0845 28.7758V12.7578" stroke="#1E293B" stroke-width="1.92216" stroke-linecap="round"/>
<path d="M19.6774 28.7759V22.3687C19.6774 20.5565 19.6774 19.6504 19.1144 19.0874C18.5514 18.5244 17.6453 18.5244 15.8331 18.5244C14.0209 18.5244 13.1147 18.5244 12.5518 19.0874C11.9888 19.6504 11.9888 20.5565 11.9888 22.3687V28.7759" stroke="#1E293B" stroke-width="1.92216"/>
<path d="M18.3963 12.7582C18.3963 14.1736 17.2488 15.3211 15.8334 15.3211C14.4179 15.3211 13.2705 14.1736 13.2705 12.7582C13.2705 11.3428 14.4179 10.1953 15.8334 10.1953C17.2488 10.1953 18.3963 11.3428 18.3963 12.7582Z" stroke="#1E293B" stroke-width="1.92216"/>
</svg>
