<svg width="25" height="24" viewBox="0 0 25 24" fill="none" xmlns="http://www.w3.org/2000/svg">
<path d="M22.6666 12C22.6666 13.3132 22.408 14.6136 21.9054 15.8268C21.4029 17.0401 20.6663 18.1425 19.7377 19.0711C18.8091 19.9997 17.7067 20.7362 16.4935 21.2388C15.2802 21.7413 13.9798 22 12.6666 22C11.3534 22 10.053 21.7413 8.83979 21.2388C7.62654 20.7362 6.52414 19.9997 5.59556 19.0711C4.66697 18.1425 3.93038 17.0401 3.42783 15.8268C2.92528 14.6136 2.66663 13.3132 2.66663 12C2.66663 10.6868 2.92528 9.38642 3.42783 8.17316C3.93038 6.95991 4.66697 5.85752 5.59556 4.92893C6.52414 4.00035 7.62654 3.26375 8.83979 2.7612C10.053 2.25866 11.3534 2 12.6666 2C13.9798 2 15.2802 2.25866 16.4935 2.76121C17.7067 3.26375 18.8091 4.00035 19.7377 4.92893C20.6663 5.85752 21.4029 6.95991 21.9054 8.17317C22.408 9.38642 22.6666 10.6868 22.6666 12L22.6666 12Z" stroke="#1C274C" stroke-width="1.5"/>
<path d="M16.6666 12C16.6666 13.3132 16.5632 14.6136 16.3621 15.8268C16.1611 17.0401 15.8665 18.1425 15.4951 19.0711C15.1236 19.9997 14.6827 20.7362 14.1974 21.2388C13.7121 21.7413 13.1919 22 12.6666 22C12.1413 22 11.6212 21.7413 11.1359 21.2388C10.6506 20.7362 10.2096 19.9997 9.8382 19.0711C9.46676 18.1425 9.17213 17.0401 8.97111 15.8268C8.77009 14.6136 8.66663 13.3132 8.66663 12C8.66663 10.6868 8.77009 9.38642 8.97111 8.17316C9.17213 6.95991 9.46676 5.85752 9.8382 4.92893C10.2096 4.00035 10.6506 3.26375 11.1359 2.7612C11.6212 2.25866 12.1413 2 12.6666 2C13.1919 2 13.7121 2.25866 14.1974 2.76121C14.6827 3.26375 15.1236 4.00035 15.4951 4.92893C15.8665 5.85752 16.1611 6.95991 16.3621 8.17317C16.5632 9.38642 16.6666 10.6868 16.6666 12L16.6666 12Z" stroke="#1C274C" stroke-width="1.5"/>
<path d="M2.66663 12H22.6666" stroke="#1C274C" stroke-width="1.5" stroke-linecap="round"/>
</svg>
