<svg width="37" height="36" viewBox="0 0 37 36" fill="none" xmlns="http://www.w3.org/2000/svg">
<rect x="0.654053" width="36.0125" height="36" rx="18" fill="black" fill-opacity="0.05"/>
<path d="M12.9566 14.1037C13.9573 14.1037 14.7578 13.2907 14.7578 12.3026C14.7578 11.3145 13.9448 10.5015 12.9566 10.5015C11.9685 10.5015 11.1555 11.3145 11.1555 12.3026C11.1555 13.2907 11.9685 14.1037 12.9566 14.1037ZM16.4713 15.4671V25.4983H19.5733V20.5452C19.5733 19.2319 19.8234 17.9686 21.4369 17.9686C23.0505 17.9686 23.0505 19.4696 23.0505 20.6203V25.4983H26.1649V19.9949C26.1649 17.2932 25.5895 15.2169 22.4376 15.2169C20.9241 15.2169 19.911 16.0424 19.4982 16.8304H19.4607V15.4546H16.4838L16.4713 15.4671ZM11.4057 15.4671H14.5201V25.4983H11.4057V15.4671Z" fill="black"/>
</svg>
