<svg width="32" height="32" viewBox="0 0 32 32" fill="none" xmlns="http://www.w3.org/2000/svg">
<path d="M19.2036 6.39891C19.2036 8.1682 17.7693 9.6025 16 9.6025C14.2307 9.6025 12.7964 8.1682 12.7964 6.39891C12.7964 4.62961 14.2307 3.19531 16 3.19531C17.7693 3.19531 19.2036 4.62961 19.2036 6.39891Z" stroke="#004AA9" stroke-width="1.92216"/>
<path d="M4.46729 22.417L7.78476 20.7407C8.10764 20.5776 8.3116 20.244 8.3116 19.8792C8.3116 16.1126 11.0509 12.8905 14.7273 12.2712C15.5642 12.1303 16.4362 12.1303 17.2731 12.2712C20.9495 12.8905 23.6888 16.1126 23.6888 19.8792C23.6888 20.244 23.8928 20.5776 24.2157 20.7407L27.5332 22.417" stroke="#004AA9" stroke-width="1.92216" stroke-linecap="round" stroke-linejoin="round"/>
<path d="M12.7964 21.1357L11.4615 22.9156C11.4208 22.97 11.4004 22.9971 11.3799 23.0231C11.0428 23.4492 10.579 23.7571 10.0555 23.9024C10.0236 23.9113 9.99062 23.9195 9.92476 23.936L8.0221 24.4117C6.68591 24.7457 5.74854 25.9463 5.74854 27.3236C5.74854 28.1524 6.42045 28.8244 7.24931 28.8244H9.24336C10.0113 28.8244 10.3952 28.8244 10.7679 28.7806C11.6396 28.6781 12.4809 28.3977 13.2397 27.9566C13.5641 27.7681 13.8713 27.5377 14.4856 27.077L14.7186 26.9022M14.7186 26.9022L17.2815 24.9801M14.7186 26.9022L17.973 28.1226C18.754 28.4155 19.1445 28.5619 19.5481 28.6563C19.7569 28.7051 19.9681 28.7433 20.1807 28.771C20.5917 28.8244 21.0088 28.8244 21.8429 28.8244H24.7508C25.5796 28.8244 26.2515 28.1524 26.2515 27.3236C26.2515 25.9463 25.3142 24.7457 23.978 24.4117L22.0753 23.936C22.0094 23.9195 21.9765 23.9113 21.9446 23.9024C21.4211 23.7571 20.9573 23.4492 20.6202 23.0231C20.5997 22.9972 20.5792 22.9698 20.5385 22.9156L19.2036 21.1357" stroke="#004AA9" stroke-width="1.92216" stroke-linecap="round" stroke-linejoin="round"/>
</svg>
