<svg width="32" height="32" viewBox="0 0 32 32" fill="none" xmlns="http://www.w3.org/2000/svg">
<path d="M18.8706 6.38926C18.8706 8.15856 17.4363 9.59285 15.667 9.59285C13.8977 9.59285 12.4634 8.15856 12.4634 6.38926C12.4634 4.61997 13.8977 3.18567 15.667 3.18567C17.4363 3.18567 18.8706 4.61997 18.8706 6.38926Z" stroke="#1E293B" stroke-width="1.92216"/>
<path d="M4.13379 22.4073L7.45126 20.7309C7.77414 20.5678 7.9781 20.2343 7.9781 19.8695C7.9781 16.1028 10.7174 12.8807 14.3938 12.2615C15.2307 12.1205 16.1027 12.1205 16.9396 12.2615C20.616 12.8807 23.3553 16.1028 23.3553 19.8695C23.3553 20.2343 23.5593 20.5678 23.8822 20.7309L27.1997 22.4073" stroke="#1E293B" stroke-width="1.92216" stroke-linecap="round" stroke-linejoin="round"/>
<path d="M12.4634 21.1259L11.1285 22.9057C11.0878 22.9601 11.0674 22.9872 11.0469 23.0132C10.7098 23.4393 10.246 23.7472 9.72246 23.8926C9.69061 23.9014 9.65762 23.9096 9.59175 23.9261L7.68909 24.4018C6.3529 24.7358 5.41553 25.9364 5.41553 27.3137C5.41553 28.1426 6.08745 28.8145 6.9163 28.8145H8.91036C9.67827 28.8145 10.0622 28.8145 10.4349 28.7707C11.3066 28.6682 12.1479 28.3878 12.9067 27.9468C13.2311 27.7582 13.5383 27.5278 14.1526 27.0671L14.3856 26.8923M14.3856 26.8923L16.9485 24.9702M14.3856 26.8923L17.64 28.1127C18.421 28.4056 18.8115 28.552 19.2151 28.6464C19.4239 28.6952 19.6351 28.7335 19.8477 28.7611C20.2587 28.8145 20.6758 28.8145 21.5099 28.8145H24.4177C25.2466 28.8145 25.9185 28.1426 25.9185 27.3137C25.9185 25.9364 24.9811 24.7358 23.645 24.4018L21.7423 23.9261C21.6764 23.9096 21.6435 23.9014 21.6116 23.8926C21.0881 23.7472 20.6243 23.4393 20.2872 23.0132C20.2667 22.9873 20.2462 22.9599 20.2055 22.9057L18.8706 21.1259" stroke="#1E293B" stroke-width="1.92216" stroke-linecap="round" stroke-linejoin="round"/>
</svg>
