<svg width="37" height="37" viewBox="0 0 37 37" fill="none" xmlns="http://www.w3.org/2000/svg">
<path d="M18.6665 3.5C13.903 3.5 10.0415 7.36154 10.0415 12.125V16.625C10.0415 21.3885 13.903 25.25 18.6665 25.25C23.0487 25.25 26.6675 21.9819 27.2188 17.75L20.1665 17.75C19.5452 17.75 19.0415 17.2463 19.0415 16.625C19.0415 16.0037 19.5452 15.5 20.1665 15.5L27.2915 15.5V13.25H20.1665C19.5452 13.25 19.0415 12.7463 19.0415 12.125C19.0415 11.5037 19.5452 11 20.1665 11H27.2188C26.6675 6.7681 23.0487 3.5 18.6665 3.5Z" fill="white"/>
<path fill-rule="evenodd" clip-rule="evenodd" d="M6.6665 14C7.28782 14 7.7915 14.5037 7.7915 15.125V16.625C7.7915 22.6311 12.6604 27.5 18.6665 27.5C24.6726 27.5 29.5415 22.6311 29.5415 16.625V15.125C29.5415 14.5037 30.0452 14 30.6665 14C31.2878 14 31.7915 14.5037 31.7915 15.125V16.625C31.7915 23.4948 26.5136 29.1318 19.7915 29.7025V33.125C19.7915 33.7463 19.2878 34.25 18.6665 34.25C18.0452 34.25 17.5415 33.7463 17.5415 33.125V29.7025C10.8194 29.1318 5.5415 23.4948 5.5415 16.625V15.125C5.5415 14.5037 6.04518 14 6.6665 14Z" fill="white"/>
</svg>
