<svg width="22" height="22" viewBox="0 0 22 22" fill="none" xmlns="http://www.w3.org/2000/svg">
<path fill-rule="evenodd" clip-rule="evenodd" d="M11.001 1.78564C7.33223 1.78564 4.35812 4.75975 4.35812 8.4285V9.03202C4.35812 9.62938 4.1813 10.2134 3.84994 10.7104L2.86543 12.1872C1.72277 13.9012 2.59509 16.2309 4.58246 16.7729C5.23012 16.9495 5.88326 17.099 6.54018 17.2211L6.54181 17.2255C7.20095 18.9843 8.96264 20.2142 11.0009 20.2142C13.0392 20.2142 14.8009 18.9843 15.46 17.2255L15.4617 17.2212C16.1186 17.099 16.7718 16.9496 17.4195 16.7729C19.4069 16.2309 20.2792 13.9012 19.1365 12.1872L18.152 10.7104C17.8207 10.2134 17.6438 9.62938 17.6438 9.03202V8.4285C17.6438 4.75975 14.6697 1.78564 11.001 1.78564ZM13.895 17.4602C11.9725 17.6899 10.0293 17.6899 8.10679 17.4602C8.71618 18.3358 9.7761 18.9285 11.0009 18.9285C12.2257 18.9285 13.2857 18.3358 13.895 17.4602ZM5.64383 8.4285C5.64383 5.46983 8.04231 3.07136 11.001 3.07136C13.9596 3.07136 16.3581 5.46983 16.3581 8.4285V9.03202C16.3581 9.88321 16.6101 10.7154 17.0822 11.4236L18.0667 12.9004C18.7226 13.8842 18.2219 15.2214 17.0812 15.5325C13.1004 16.6182 8.90154 16.6182 4.92075 15.5325C3.78004 15.2214 3.27934 13.8842 3.9352 12.9004L4.91972 11.4236C5.39188 10.7154 5.64383 9.88321 5.64383 9.03202V8.4285Z" fill="#1C274C"/>
</svg>
