<svg width="32" height="32" viewBox="0 0 32 32" fill="none" xmlns="http://www.w3.org/2000/svg">
<path d="M8.9392 9.28675L8.45866 10.1191L8.9392 9.28675ZM8.23564 8.58319L7.40332 9.06373L8.23564 8.58319ZM23.0978 8.58319L23.9302 9.06373L23.0978 8.58319ZM22.3943 9.28675L22.8748 10.1191L22.3943 9.28675ZM22.3943 3.3946L22.8748 2.56229L22.3943 3.3946ZM23.0978 4.09816L23.9302 3.61762L23.0978 4.09816ZM8.9392 3.3946L8.45866 2.56229L8.9392 3.3946ZM8.23564 4.09816L7.40332 3.61762L8.23564 4.09816ZM17.8543 28.3905L17.1747 27.7109L17.8543 28.3905ZM17.8543 18.8897L17.1747 19.5692L17.8543 18.8897ZM13.4792 18.8897L12.7996 18.2101H12.7996L13.4792 18.8897ZM13.4792 28.3905L14.1588 27.7109L13.4792 28.3905ZM20.0321 14.6559L19.8896 13.7055H19.8896L20.0321 14.6559ZM25.2561 13.8723L25.1135 12.9219L25.2561 13.8723ZM28.303 7.96468L29.1972 7.6126V7.6126L28.303 7.96468ZM26.8571 6.51884L26.505 7.41311L26.8571 6.51884ZM27.1208 13.4447L26.6698 12.596L27.1208 13.4447ZM28.3348 12.035L29.241 12.3551V12.3551L28.3348 12.035ZM16.2876 15.8454L15.5594 15.2183L16.2876 15.8454ZM15.6728 18.5143V19.4754H16.6179L16.6337 18.5304L15.6728 18.5143ZM7.3374 5.3796C6.80661 5.3796 6.37632 5.80989 6.37632 6.34068C6.37632 6.87147 6.80661 7.30176 7.3374 7.30176V5.3796ZM11.1817 3.13708V4.09816H20.1518V3.13708V2.17601H11.1817V3.13708ZM20.1518 9.54427V8.58319H11.1817V9.54427V10.5053H20.1518V9.54427ZM11.1817 9.54427V8.58319C10.5652 8.58319 10.1671 8.58227 9.86535 8.55493C9.57684 8.52878 9.4721 8.48466 9.41974 8.45443L8.9392 9.28675L8.45866 10.1191C8.85233 10.3464 9.27002 10.431 9.69185 10.4692C10.1005 10.5063 10.6006 10.5053 11.1817 10.5053V9.54427ZM7.97812 6.34068H7.01704C7.01704 6.92182 7.01612 7.42193 7.05316 7.83054C7.09139 8.25237 7.17604 8.67006 7.40332 9.06373L8.23564 8.58319L9.06796 8.10265C9.03773 8.05029 8.99361 7.94555 8.96747 7.65704C8.94012 7.35532 8.9392 6.95719 8.9392 6.34068H7.97812ZM8.9392 9.28675L9.41974 8.45443C9.27364 8.37008 9.15231 8.24876 9.06796 8.10265L8.23564 8.58319L7.40332 9.06373C7.65638 9.50204 8.02035 9.86601 8.45866 10.1191L8.9392 9.28675ZM23.3554 6.34068H22.3943C22.3943 6.95719 22.3934 7.35532 22.366 7.65704C22.3399 7.94555 22.2958 8.05029 22.2655 8.10265L23.0978 8.58319L23.9302 9.06373C24.1575 8.67006 24.2421 8.25237 24.2803 7.83054C24.3174 7.42193 24.3164 6.92182 24.3164 6.34068H23.3554ZM20.1518 9.54427V10.5053C20.7329 10.5053 21.233 10.5063 21.6416 10.4692C22.0635 10.431 22.4812 10.3464 22.8748 10.1191L22.3943 9.28675L21.9137 8.45443C21.8614 8.48466 21.7566 8.52878 21.4681 8.55493C21.1664 8.58227 20.7683 8.58319 20.1518 8.58319V9.54427ZM23.0978 8.58319L22.2655 8.10265C22.1812 8.24876 22.0599 8.37008 21.9137 8.45443L22.3943 9.28675L22.8748 10.1191C23.3131 9.86601 23.6771 9.50204 23.9302 9.06373L23.0978 8.58319ZM20.1518 3.13708V4.09816C20.7683 4.09816 21.1664 4.09908 21.4681 4.12643C21.7566 4.15258 21.8614 4.19669 21.9137 4.22692L22.3943 3.3946L22.8748 2.56229C22.4812 2.335 22.0635 2.25035 21.6416 2.21212C21.233 2.17509 20.7329 2.17601 20.1518 2.17601V3.13708ZM23.3554 6.34068H24.3164C24.3164 5.75954 24.3174 5.25943 24.2803 4.85082C24.2421 4.42899 24.1575 4.0113 23.9302 3.61762L23.0978 4.09816L22.2655 4.5787C22.2958 4.63107 22.3399 4.73581 22.366 5.02432C22.3934 5.32604 22.3943 5.72416 22.3943 6.34068H23.3554ZM22.3943 3.3946L21.9137 4.22692C22.0599 4.31127 22.1812 4.4326 22.2655 4.5787L23.0978 4.09816L23.9302 3.61762C23.6771 3.17932 23.3131 2.81534 22.8748 2.56229L22.3943 3.3946ZM11.1817 3.13708V2.17601C10.6006 2.17601 10.1005 2.17509 9.69185 2.21212C9.27002 2.25035 8.85233 2.335 8.45866 2.56229L8.9392 3.3946L9.41974 4.22692C9.4721 4.19669 9.57684 4.15258 9.86535 4.12643C10.1671 4.09908 10.5652 4.09816 11.1817 4.09816V3.13708ZM7.97812 6.34068H8.9392C8.9392 5.72416 8.94012 5.32604 8.96747 5.02432C8.99361 4.73581 9.03773 4.63107 9.06796 4.5787L8.23564 4.09816L7.40332 3.61762C7.17604 4.0113 7.09139 4.42899 7.05316 4.85082C7.01612 5.25943 7.01704 5.75954 7.01704 6.34068H7.97812ZM8.9392 3.3946L8.45866 2.56229C8.02035 2.81534 7.65638 3.17932 7.40332 3.61762L8.23564 4.09816L9.06796 4.5787C9.15231 4.4326 9.27364 4.31128 9.41974 4.22692L8.9392 3.3946ZM13.1039 26.203H14.0649V21.0772H13.1039H12.1428V26.203H13.1039ZM18.2296 21.0772H17.2685V26.203H18.2296H19.1907V21.0772H18.2296ZM18.2296 26.203H17.2685C17.2685 26.8342 17.2665 27.2109 17.2302 27.481C17.2136 27.6047 17.194 27.6667 17.1825 27.6946C17.1798 27.7011 17.1777 27.7053 17.1765 27.7078C17.1752 27.7102 17.1745 27.7113 17.1744 27.7114C17.1743 27.7115 17.1745 27.7112 17.1749 27.7108C17.1753 27.7103 17.1753 27.7103 17.1747 27.7109L17.8543 28.3905L18.5339 29.0701C18.9299 28.6741 19.074 28.1926 19.1352 27.7371C19.1927 27.3092 19.1907 26.7799 19.1907 26.203H18.2296ZM15.6667 28.7658V29.7269C16.2437 29.7269 16.773 29.7289 17.2009 29.6714C17.6564 29.6102 18.1379 29.4661 18.5339 29.0701L17.8543 28.3905L17.1747 27.7109C17.1741 27.7115 17.1741 27.7115 17.1745 27.7111C17.175 27.7108 17.1753 27.7106 17.1752 27.7106C17.1751 27.7107 17.174 27.7114 17.1716 27.7127C17.1691 27.714 17.1648 27.716 17.1584 27.7187C17.1305 27.7302 17.0685 27.7498 16.9448 27.7664C16.6747 27.8027 16.298 27.8048 15.6667 27.8048V28.7658ZM15.6667 18.5143V19.4754C16.298 19.4754 16.6747 19.4774 16.9448 19.5138C17.0685 19.5304 17.1305 19.55 17.1584 19.5615C17.1648 19.5641 17.1691 19.5662 17.1716 19.5675C17.174 19.5688 17.1751 19.5695 17.1752 19.5696C17.1753 19.5696 17.175 19.5694 17.1745 19.569C17.1741 19.5687 17.1741 19.5687 17.1747 19.5692L17.8543 18.8897L18.5339 18.2101C18.1379 17.8141 17.6564 17.67 17.2009 17.6087C16.773 17.5512 16.2436 17.5533 15.6667 17.5533V18.5143ZM18.2296 21.0772H19.1907C19.1907 20.5003 19.1927 19.9709 19.1352 19.5431C19.074 19.0875 18.9299 18.6061 18.5339 18.2101L17.8543 18.8897L17.1747 19.5692C17.1753 19.5698 17.1753 19.5698 17.1749 19.5694C17.1745 19.569 17.1743 19.5687 17.1744 19.5687C17.1745 19.5688 17.1752 19.5699 17.1765 19.5724C17.1778 19.5749 17.1798 19.5791 17.1825 19.5856C17.194 19.6135 17.2136 19.6754 17.2302 19.7992C17.2665 20.0692 17.2685 20.446 17.2685 21.0772H18.2296ZM13.1039 21.0772H14.0649C14.0649 20.446 14.067 20.0692 14.1033 19.7992C14.1199 19.6754 14.1395 19.6135 14.151 19.5856C14.1537 19.5791 14.1557 19.5749 14.157 19.5724C14.1583 19.5699 14.159 19.5688 14.1591 19.5687C14.1591 19.5687 14.1589 19.569 14.1586 19.5694C14.1582 19.5698 14.1582 19.5698 14.1588 19.5692L13.4792 18.8897L12.7996 18.2101C12.4036 18.6061 12.2595 19.0875 12.1983 19.5431C12.1408 19.9709 12.1428 20.5003 12.1428 21.0772H13.1039ZM15.6667 18.5143V17.5533C15.0898 17.5533 14.5605 17.5512 14.1326 17.6087C13.6771 17.67 13.1956 17.8141 12.7996 18.2101L13.4792 18.8897L14.1588 19.5692C14.1594 19.5687 14.1594 19.5687 14.1589 19.569C14.1585 19.5694 14.1582 19.5696 14.1583 19.5696C14.1584 19.5695 14.1595 19.5688 14.1619 19.5675C14.1644 19.5662 14.1686 19.5641 14.1751 19.5615C14.203 19.55 14.265 19.5304 14.3887 19.5138C14.6587 19.4774 15.0355 19.4754 15.6667 19.4754V18.5143ZM13.1039 26.203H12.1428C12.1428 26.7799 12.1408 27.3092 12.1983 27.7371C12.2595 28.1926 12.4036 28.6741 12.7996 29.0701L13.4792 28.3905L14.1588 27.7109C14.1582 27.7103 14.1582 27.7103 14.1586 27.7108C14.1589 27.7112 14.1591 27.7115 14.1591 27.7114C14.159 27.7113 14.1583 27.7102 14.157 27.7078C14.1557 27.7053 14.1537 27.7011 14.151 27.6946C14.1395 27.6667 14.1199 27.6047 14.1033 27.481C14.067 27.2109 14.0649 26.8342 14.0649 26.203H13.1039ZM15.6667 28.7658V27.8048C15.0355 27.8048 14.6587 27.8027 14.3887 27.7664C14.265 27.7498 14.203 27.7302 14.1751 27.7187C14.1686 27.716 14.1644 27.714 14.1619 27.7127C14.1595 27.7114 14.1584 27.7107 14.1583 27.7106C14.1582 27.7106 14.1585 27.7108 14.1589 27.7111C14.1594 27.7115 14.1594 27.7115 14.1588 27.7109L13.4792 28.3905L12.7996 29.0701C13.1956 29.4661 13.6771 29.6102 14.1326 29.6714C14.5605 29.7289 15.0898 29.7269 15.6667 29.7269V28.7658ZM20.0321 14.6559L20.1747 15.6064L25.3986 14.8228L25.2561 13.8723L25.1135 12.9219L19.8896 13.7055L20.0321 14.6559ZM24.6943 6.34068V5.3796H23.3554V6.34068V7.30176H24.6943V6.34068ZM28.4811 10.1275H29.4422C29.4422 9.56992 29.4427 9.10581 29.4179 8.72568C29.3926 8.33745 29.338 7.9703 29.1972 7.6126L28.303 7.96468L27.4087 8.31676C27.446 8.41159 27.4806 8.55575 27.4998 8.85073C27.5196 9.15382 27.52 9.54483 27.52 10.1275H28.4811ZM24.6943 6.34068V7.30176C25.277 7.30176 25.668 7.30223 25.9711 7.32199C26.266 7.34122 26.4102 7.37577 26.505 7.41311L26.8571 6.51884L27.2092 5.62458C26.8515 5.48375 26.4843 5.42922 26.0961 5.40391C25.716 5.37912 25.2519 5.3796 24.6943 5.3796V6.34068ZM28.303 7.96468L29.1972 7.6126C28.839 6.70283 28.119 5.98276 27.2092 5.62458L26.8571 6.51884L26.505 7.41311C26.9186 7.57592 27.2459 7.90322 27.4087 8.31676L28.303 7.96468ZM25.2561 13.8723L25.3986 14.8228C26.3066 14.6866 27.0024 14.5959 27.5717 14.2934L27.1208 13.4447L26.6698 12.596C26.4633 12.7057 26.1746 12.7627 25.1135 12.9219L25.2561 13.8723ZM28.4811 10.1275H27.52C27.52 11.2004 27.5065 11.4944 27.4286 11.7149L28.3348 12.035L29.241 12.3551C29.4558 11.7471 29.4422 11.0456 29.4422 10.1275H28.4811ZM27.1208 13.4447L27.5717 14.2934C28.3513 13.8792 28.947 13.1874 29.241 12.3551L28.3348 12.035L27.4286 11.7149C27.295 12.0933 27.0242 12.4077 26.6698 12.596L27.1208 13.4447ZM20.0321 14.6559L19.8896 13.7055C18.873 13.858 18.0216 13.9839 17.3517 14.1723C16.6557 14.3679 16.04 14.6602 15.5594 15.2183L16.2876 15.8454L17.0159 16.4726C17.1561 16.3097 17.3714 16.1634 17.872 16.0227C18.3985 15.8746 19.1088 15.7663 20.1747 15.6064L20.0321 14.6559ZM15.6728 18.5143L16.6337 18.5304C16.6565 17.1649 16.7833 16.7427 17.0159 16.4726L16.2876 15.8454L15.5594 15.2183C14.8151 16.0825 14.7334 17.2056 14.7118 18.4983L15.6728 18.5143ZM15.6667 18.5143V19.4754H15.6728V18.5143V17.5533H15.6667V18.5143ZM7.97812 6.34068V5.3796H7.3374V6.34068V7.30176H7.97812V6.34068Z" fill="#1E293B"/>
</svg>
