<svg width="32" height="32" viewBox="0 0 32 32" fill="none" xmlns="http://www.w3.org/2000/svg">
<path d="M9.27269 9.29615L8.79216 10.1285L9.27269 9.29615ZM8.56914 8.59259L7.73682 9.07313L8.56914 8.59259ZM23.4313 8.59259L24.2637 9.07313L23.4313 8.59259ZM22.7278 9.29615L23.2083 10.1285L22.7278 9.29615ZM22.7278 3.404L23.2083 2.57169L22.7278 3.404ZM23.4313 4.10756L24.2637 3.62702L23.4313 4.10756ZM9.27269 3.404L8.79216 2.57169L9.27269 3.404ZM8.56914 4.10756L7.73682 3.62702L8.56914 4.10756ZM18.1878 28.3999L17.5082 27.7203L17.5082 27.7203L18.1878 28.3999ZM18.1878 18.8991L17.5082 19.5786L17.5082 19.5786L18.1878 18.8991ZM13.8127 18.8991L13.1331 18.2195L13.1331 18.2195L13.8127 18.8991ZM13.8127 28.3999L14.4923 27.7203L14.4923 27.7203L13.8127 28.3999ZM20.3656 14.6653L20.2231 13.7149L20.2231 13.7149L20.3656 14.6653ZM25.5896 13.8817L25.447 12.9313L25.447 12.9313L25.5896 13.8817ZM28.6364 7.97408L29.5307 7.622L29.5307 7.622L28.6364 7.97408ZM27.1906 6.52824L26.8385 7.42251L26.8385 7.42251L27.1906 6.52824ZM27.4543 13.4541L27.0033 12.6054L27.0033 12.6054L27.4543 13.4541ZM28.6683 12.0444L29.5745 12.3645L29.5745 12.3645L28.6683 12.0444ZM16.6211 15.8548L15.8929 15.2277L15.8929 15.2277L16.6211 15.8548ZM16.0063 18.5237V19.4848H16.9514L16.9672 18.5398L16.0063 18.5237ZM7.6709 5.389C7.14011 5.389 6.70982 5.81929 6.70982 6.35008C6.70982 6.88087 7.14011 7.31116 7.6709 7.31116V5.389ZM11.5152 3.14648V4.10756H20.4853V3.14648V2.18541H11.5152V3.14648ZM20.4853 9.55367V8.59259H11.5152V9.55367V10.5147H20.4853V9.55367ZM11.5152 9.55367V8.59259C10.8987 8.59259 10.5006 8.59167 10.1988 8.56433C9.91034 8.53818 9.8056 8.49406 9.75323 8.46383L9.27269 9.29615L8.79216 10.1285C9.18583 10.3558 9.60352 10.4404 10.0253 10.4786C10.434 10.5157 10.9341 10.5147 11.5152 10.5147V9.55367ZM8.31162 6.35008H7.35054C7.35054 6.93122 7.34962 7.43133 7.38665 7.83994C7.42488 8.26177 7.50953 8.67946 7.73682 9.07313L8.56914 8.59259L9.40145 8.11205C9.37122 8.05969 9.32711 7.95495 9.30096 7.66644C9.27362 7.36472 9.27269 6.96659 9.27269 6.35008H8.31162ZM9.27269 9.29615L9.75323 8.46383C9.60713 8.37948 9.48581 8.25816 9.40145 8.11205L8.56914 8.59259L7.73682 9.07313C7.98988 9.51144 8.35385 9.87541 8.79216 10.1285L9.27269 9.29615ZM23.6889 6.35008H22.7278C22.7278 6.96659 22.7269 7.36472 22.6995 7.66644C22.6734 7.95495 22.6293 8.05969 22.599 8.11205L23.4313 8.59259L24.2637 9.07313C24.4909 8.67946 24.5756 8.26177 24.6138 7.83994C24.6509 7.43133 24.6499 6.93122 24.6499 6.35008H23.6889ZM20.4853 9.55367V10.5147C21.0664 10.5147 21.5665 10.5157 21.9751 10.4786C22.397 10.4404 22.8146 10.3558 23.2083 10.1285L22.7278 9.29615L22.2472 8.46383C22.1949 8.49406 22.0901 8.53818 21.8016 8.56433C21.4999 8.59167 21.1018 8.59259 20.4853 8.59259V9.55367ZM23.4313 8.59259L22.599 8.11205C22.5147 8.25816 22.3933 8.37948 22.2472 8.46383L22.7278 9.29615L23.2083 10.1285C23.6466 9.87541 24.0106 9.51144 24.2637 9.07313L23.4313 8.59259ZM20.4853 3.14648V4.10756C21.1018 4.10756 21.4999 4.10848 21.8016 4.13583C22.0901 4.16198 22.1949 4.20609 22.2472 4.23632L22.7278 3.404L23.2083 2.57169C22.8146 2.3444 22.397 2.25975 21.9751 2.22152C21.5665 2.18449 21.0664 2.18541 20.4853 2.18541V3.14648ZM23.6889 6.35008H24.6499C24.6499 5.76894 24.6509 5.26883 24.6138 4.86021C24.5756 4.43839 24.4909 4.0207 24.2637 3.62702L23.4313 4.10756L22.599 4.5881C22.6293 4.64047 22.6734 4.74521 22.6995 5.03371C22.7269 5.33544 22.7278 5.73356 22.7278 6.35008H23.6889ZM22.7278 3.404L22.2472 4.23632C22.3933 4.32067 22.5147 4.442 22.599 4.5881L23.4313 4.10756L24.2637 3.62702C24.0106 3.18872 23.6466 2.82474 23.2083 2.57169L22.7278 3.404ZM11.5152 3.14648V2.18541C10.9341 2.18541 10.434 2.18449 10.0253 2.22152C9.60352 2.25975 9.18583 2.3444 8.79216 2.57169L9.27269 3.404L9.75323 4.23632C9.8056 4.20609 9.91034 4.16198 10.1988 4.13583C10.5006 4.10848 10.8987 4.10756 11.5152 4.10756V3.14648ZM8.31162 6.35008H9.27269C9.27269 5.73356 9.27362 5.33544 9.30096 5.03371C9.32711 4.74521 9.37122 4.64046 9.40145 4.5881L8.56914 4.10756L7.73682 3.62702C7.50953 4.0207 7.42488 4.43839 7.38665 4.86021C7.34962 5.26883 7.35054 5.76894 7.35054 6.35008H8.31162ZM9.27269 3.404L8.79216 2.57169C8.35385 2.82474 7.98988 3.18872 7.73682 3.62702L8.56914 4.10756L9.40145 4.5881C9.48581 4.442 9.60713 4.32067 9.75323 4.23632L9.27269 3.404ZM13.4374 26.2124H14.3984V21.0866H13.4374H12.4763V26.2124H13.4374ZM18.5631 21.0866H17.602V26.2124H18.5631H19.5242V21.0866H18.5631ZM18.5631 26.2124H17.602C17.602 26.8436 17.6 27.2203 17.5637 27.4904C17.5471 27.6141 17.5275 27.6761 17.516 27.704C17.5133 27.7105 17.5112 27.7147 17.51 27.7172C17.5087 27.7196 17.508 27.7207 17.5079 27.7208C17.5078 27.7209 17.508 27.7206 17.5084 27.7202C17.5088 27.7197 17.5088 27.7197 17.5082 27.7203L18.1878 28.3999L18.8674 29.0795C19.2634 28.6835 19.4075 28.202 19.4687 27.7465C19.5262 27.3186 19.5242 26.7893 19.5242 26.2124H18.5631ZM16.0002 28.7752V29.7363C16.5771 29.7363 17.1065 29.7383 17.5344 29.6808C17.9899 29.6196 18.4714 29.4755 18.8674 29.0795L18.1878 28.3999L17.5082 27.7203C17.5076 27.7209 17.5076 27.7209 17.508 27.7205C17.5085 27.7202 17.5088 27.72 17.5087 27.72C17.5086 27.7201 17.5075 27.7208 17.5051 27.7221C17.5026 27.7234 17.4983 27.7254 17.4919 27.7281C17.464 27.7396 17.402 27.7592 17.2783 27.7758C17.0082 27.8121 16.6315 27.8141 16.0002 27.8141V28.7752ZM16.0002 18.5237V19.4848C16.6315 19.4848 17.0082 19.4868 17.2783 19.5232C17.402 19.5398 17.464 19.5594 17.4919 19.5709C17.4983 19.5735 17.5026 19.5756 17.5051 19.5769C17.5075 19.5782 17.5086 19.5789 17.5087 19.579C17.5088 19.579 17.5085 19.5788 17.508 19.5784C17.5076 19.5781 17.5076 19.5781 17.5082 19.5786L18.1878 18.8991L18.8674 18.2195C18.4714 17.8235 17.9899 17.6794 17.5344 17.6181C17.1065 17.5606 16.5771 17.5627 16.0002 17.5627V18.5237ZM18.5631 21.0866H19.5242C19.5242 20.5097 19.5262 19.9803 19.4687 19.5525C19.4075 19.0969 19.2634 18.6155 18.8674 18.2195L18.1878 18.8991L17.5082 19.5786C17.5088 19.5792 17.5088 19.5792 17.5084 19.5788C17.508 19.5784 17.5078 19.5781 17.5079 19.5781C17.508 19.5782 17.5087 19.5793 17.51 19.5818C17.5112 19.5843 17.5133 19.5885 17.516 19.595C17.5275 19.6229 17.5471 19.6848 17.5637 19.8086C17.6 20.0786 17.602 20.4554 17.602 21.0866H18.5631ZM13.4374 21.0866H14.3984C14.3984 20.4554 14.4005 20.0786 14.4368 19.8086C14.4534 19.6848 14.473 19.6229 14.4845 19.595C14.4872 19.5885 14.4892 19.5843 14.4905 19.5818C14.4918 19.5793 14.4925 19.5782 14.4926 19.5781C14.4926 19.5781 14.4924 19.5784 14.4921 19.5788C14.4917 19.5792 14.4917 19.5792 14.4923 19.5786L13.8127 18.8991L13.1331 18.2195C12.7371 18.6155 12.593 19.0969 12.5318 19.5525C12.4742 19.9803 12.4763 20.5097 12.4763 21.0866H13.4374ZM16.0002 18.5237V17.5627C15.4233 17.5627 14.894 17.5606 14.4661 17.6181C14.0106 17.6794 13.5291 17.8235 13.1331 18.2195L13.8127 18.8991L14.4923 19.5786C14.4929 19.5781 14.4929 19.5781 14.4924 19.5784C14.492 19.5788 14.4917 19.579 14.4918 19.579C14.4919 19.5789 14.493 19.5782 14.4954 19.5769C14.4979 19.5756 14.5021 19.5735 14.5086 19.5709C14.5365 19.5594 14.5985 19.5398 14.7222 19.5232C14.9922 19.4868 15.369 19.4848 16.0002 19.4848V18.5237ZM13.4374 26.2124H12.4763C12.4763 26.7893 12.4742 27.3186 12.5318 27.7465C12.593 28.202 12.7371 28.6835 13.1331 29.0795L13.8127 28.3999L14.4923 27.7203C14.4917 27.7197 14.4917 27.7197 14.4921 27.7202C14.4924 27.7206 14.4926 27.7209 14.4926 27.7208C14.4925 27.7207 14.4918 27.7196 14.4905 27.7172C14.4892 27.7147 14.4872 27.7105 14.4845 27.704C14.473 27.6761 14.4534 27.6141 14.4368 27.4904C14.4005 27.2203 14.3984 26.8436 14.3984 26.2124H13.4374ZM16.0002 28.7752V27.8141C15.369 27.8141 14.9922 27.8121 14.7222 27.7758C14.5985 27.7592 14.5365 27.7396 14.5086 27.7281C14.5021 27.7254 14.4979 27.7234 14.4954 27.7221C14.493 27.7208 14.4919 27.7201 14.4918 27.72C14.4917 27.72 14.492 27.7202 14.4924 27.7205C14.4929 27.7209 14.4929 27.7209 14.4923 27.7203L13.8127 28.3999L13.1331 29.0795C13.5291 29.4755 14.0106 29.6196 14.4661 29.6808C14.894 29.7383 15.4233 29.7363 16.0002 29.7363V28.7752ZM20.3656 14.6653L20.5082 15.6158L25.7321 14.8322L25.5896 13.8817L25.447 12.9313L20.2231 13.7149L20.3656 14.6653ZM25.0278 6.35008V5.389H23.6889V6.35008V7.31116H25.0278V6.35008ZM28.8146 10.1369H29.7757C29.7757 9.57932 29.7762 9.11521 29.7514 8.73508C29.7261 8.34685 29.6715 7.9797 29.5307 7.622L28.6364 7.97408L27.7422 8.32616C27.7795 8.42099 27.8141 8.56515 27.8333 8.86013C27.8531 9.16322 27.8535 9.55423 27.8535 10.1369H28.8146ZM25.0278 6.35008V7.31116C25.6105 7.31116 26.0015 7.31163 26.3046 7.33139C26.5995 7.35062 26.7437 7.38517 26.8385 7.42251L27.1906 6.52824L27.5427 5.63397C27.185 5.49315 26.8178 5.43862 26.4296 5.41331C26.0495 5.38852 25.5854 5.389 25.0278 5.389V6.35008ZM28.6364 7.97408L29.5307 7.622C29.1725 6.71223 28.4525 5.99216 27.5427 5.63397L27.1906 6.52824L26.8385 7.42251C27.2521 7.58532 27.5794 7.91262 27.7422 8.32616L28.6364 7.97408ZM25.5896 13.8817L25.7321 14.8322C26.6401 14.696 27.3359 14.6053 27.9052 14.3028L27.4543 13.4541L27.0033 12.6054C26.7968 12.7151 26.5081 12.7721 25.447 12.9313L25.5896 13.8817ZM28.8146 10.1369H27.8535C27.8535 11.2098 27.84 11.5038 27.7621 11.7243L28.6683 12.0444L29.5745 12.3645C29.7892 11.7565 29.7757 11.055 29.7757 10.1369H28.8146ZM27.4543 13.4541L27.9052 14.3028C28.6848 13.8886 29.2805 13.1968 29.5745 12.3645L28.6683 12.0444L27.7621 11.7243C27.6285 12.1027 27.3577 12.4171 27.0033 12.6054L27.4543 13.4541ZM20.3656 14.6653L20.2231 13.7149C19.2065 13.8674 18.3551 13.9933 17.6851 14.1817C16.9892 14.3773 16.3735 14.6696 15.8929 15.2277L16.6211 15.8548L17.3494 16.482C17.4896 16.3191 17.7049 16.1728 18.2055 16.0321C18.732 15.884 19.4423 15.7757 20.5082 15.6158L20.3656 14.6653ZM16.0063 18.5237L16.9672 18.5398C16.99 17.1743 17.1168 16.7521 17.3494 16.482L16.6211 15.8548L15.8929 15.2277C15.1486 16.0919 15.0669 17.215 15.0453 18.5077L16.0063 18.5237ZM16.0002 18.5237V19.4848H16.0063V18.5237V17.5627H16.0002V18.5237ZM8.31162 6.35008V5.389H7.6709V6.35008V7.31116H8.31162V6.35008Z" fill="#004AA9"/>
</svg>
