<svg width="25" height="24" viewBox="0 0 25 24" fill="none" xmlns="http://www.w3.org/2000/svg">
<path d="M22.3333 10.5V12C22.3333 16.714 22.3333 19.0711 20.8688 20.5355C19.4043 22 17.0473 22 12.3333 22C7.61921 22 5.26218 22 3.79772 20.5355C2.33325 19.0711 2.33325 16.714 2.33325 12C2.33325 7.28595 2.33325 4.92893 3.79772 3.46447C5.26218 2 7.61921 2 12.3333 2H13.8333" stroke="#1C274C" stroke-width="1.5" stroke-linecap="round"/>
<path d="M16.9853 3.45506L17.6341 2.80624C18.7091 1.73125 20.452 1.73125 21.527 2.80624C22.602 3.88124 22.602 5.62415 21.527 6.69914L20.8782 7.34795M16.9853 3.45506C16.9853 3.45506 17.0664 4.83379 18.2829 6.05032C19.4995 7.26685 20.8782 7.34795 20.8782 7.34795M16.9853 3.45506L11.0204 9.41993C10.6164 9.82394 10.4144 10.0259 10.2407 10.2487C10.0357 10.5114 9.86005 10.7957 9.71669 11.0965C9.59517 11.3515 9.50482 11.6225 9.32414 12.1646L8.74567 13.9M20.8782 7.34795L14.9133 13.3128C14.5093 13.7168 14.3073 13.9188 14.0846 14.0926C13.8218 14.2975 13.5375 14.4732 13.2367 14.6166C12.9817 14.7381 12.7107 14.8284 12.1687 15.0091L10.4333 15.5876M10.4333 15.5876L9.31034 15.9619C9.0436 16.0508 8.74951 15.9814 8.55069 15.7826C8.35188 15.5837 8.28245 15.2897 8.37137 15.0229L8.74567 13.9M10.4333 15.5876L8.74567 13.9" stroke="#1C274C" stroke-width="1.5"/>
</svg>
