<svg width="32" height="32" viewBox="0 0 32 32" fill="none" xmlns="http://www.w3.org/2000/svg">
<path d="M12.1558 13.4469C12.1558 11.3237 13.8769 9.60254 16.0001 9.60254C18.1232 9.60254 19.8444 11.3237 19.8444 13.4469V17.2912C19.8444 19.4143 18.1232 21.1355 16.0001 21.1355C13.8769 21.1355 12.1558 19.4143 12.1558 17.2912V13.4469Z" stroke="#004AA9" stroke-width="1.92216"/>
<path d="M17.2814 13.4468L19.8442 13.4468" stroke="#004AA9" stroke-width="1.92216" stroke-linecap="round"/>
<path d="M17.2814 17.2915L19.8442 17.2915" stroke="#004AA9" stroke-width="1.92216" stroke-linecap="round"/>
<path d="M12.1561 13.4468L13.4375 13.4468" stroke="#004AA9" stroke-width="1.92216" stroke-linecap="round"/>
<path d="M12.1561 17.2915L13.4375 17.2915" stroke="#004AA9" stroke-width="1.92216" stroke-linecap="round"/>
<path d="M5.9458 21.1355C7.25236 21.1355 8.31153 20.0764 8.31153 18.7698V13.4469C8.31153 9.20061 11.7538 5.7583 16.0001 5.7583C20.2464 5.7583 23.6887 9.20061 23.6887 13.4469V18.7698C23.6887 20.0764 24.7479 21.1355 26.0545 21.1355" stroke="#004AA9" stroke-width="1.92216"/>
<path d="M3.18555 16.0097C3.18555 14.5942 4.33298 13.4468 5.74842 13.4468C7.16386 13.4468 8.3113 14.5942 8.3113 16.0097V18.5725C8.3113 19.988 7.16386 21.1354 5.74842 21.1354C4.33298 21.1354 3.18555 19.988 3.18555 18.5725V16.0097Z" stroke="#004AA9" stroke-width="1.92216"/>
<path d="M23.689 16.0097C23.689 14.5942 24.8364 13.4468 26.2518 13.4468C27.6673 13.4468 28.8147 14.5942 28.8147 16.0097V18.5725C28.8147 19.988 27.6673 21.1354 26.2518 21.1354C24.8364 21.1354 23.689 19.988 23.689 18.5725V16.0097Z" stroke="#1C274C" stroke-width="1.92216"/>
<path d="M16 21.1357V24.9801" stroke="#1C274C" stroke-width="1.92216" stroke-linecap="round"/>
</svg>
