<svg width="32" height="32" viewBox="0 0 32 32" fill="none" xmlns="http://www.w3.org/2000/svg">
<path d="M12.1553 13.4372C12.1553 11.3141 13.8764 9.5929 15.9996 9.5929C18.1227 9.5929 19.8439 11.3141 19.8439 13.4372V17.2815C19.8439 19.4047 18.1227 21.1258 15.9996 21.1258C13.8764 21.1258 12.1553 19.4047 12.1553 17.2815V13.4372Z" stroke="#1E293B" stroke-width="1.92216"/>
<path d="M17.2814 13.4371L19.8442 13.4371" stroke="#1E293B" stroke-width="1.92216" stroke-linecap="round"/>
<path d="M17.2814 17.2815L19.8442 17.2815" stroke="#1E293B" stroke-width="1.92216" stroke-linecap="round"/>
<path d="M12.1556 13.4371L13.437 13.4371" stroke="#1E293B" stroke-width="1.92216" stroke-linecap="round"/>
<path d="M12.1556 17.2815L13.437 17.2815" stroke="#1E293B" stroke-width="1.92216" stroke-linecap="round"/>
<path d="M5.94531 21.1258C7.25187 21.1258 8.31104 20.0666 8.31104 18.7601V13.4371C8.31104 9.19084 11.7533 5.74854 15.9996 5.74854C20.2459 5.74854 23.6882 9.19084 23.6882 13.4371V18.7601C23.6882 20.0666 24.7474 21.1258 26.054 21.1258" stroke="#1E293B" stroke-width="1.92216"/>
<path d="M3.18555 16C3.18555 14.5846 4.33298 13.4371 5.74842 13.4371C7.16386 13.4371 8.3113 14.5846 8.3113 16V18.5629C8.3113 19.9783 7.16386 21.1258 5.74842 21.1258C4.33298 21.1258 3.18555 19.9783 3.18555 18.5629V16Z" stroke="#1E293B" stroke-width="1.92216"/>
<path d="M23.6885 16C23.6885 14.5846 24.8359 13.4371 26.2514 13.4371C27.6668 13.4371 28.8142 14.5846 28.8142 16V18.5629C28.8142 19.9783 27.6668 21.1258 26.2514 21.1258C24.8359 21.1258 23.6885 19.9783 23.6885 18.5629V16Z" stroke="#1C274C" stroke-width="1.92216"/>
<path d="M16 21.1259V24.9702" stroke="#1C274C" stroke-width="1.92216" stroke-linecap="round"/>
</svg>
