<svg width="25" height="24" viewBox="0 0 25 24" fill="none" xmlns="http://www.w3.org/2000/svg">
<path d="M10.448 3.89125C11.0118 3.41072 11.2938 3.17045 11.5885 3.02956C12.2703 2.70369 13.0629 2.70369 13.7447 3.02956C14.0395 3.17045 14.3214 3.41072 14.8853 3.89125C15.1097 4.0825 15.222 4.17813 15.3418 4.25845C15.6165 4.44257 15.925 4.57037 16.2495 4.63442C16.391 4.66236 16.538 4.67409 16.8319 4.69755C17.5704 4.75648 17.9397 4.78595 18.2477 4.89476C18.9602 5.14643 19.5207 5.70689 19.7724 6.41942C19.8812 6.72748 19.9107 7.09673 19.9696 7.83524C19.993 8.12917 20.0048 8.27613 20.0327 8.41767C20.0968 8.74211 20.2246 9.05063 20.4087 9.32534C20.489 9.44518 20.5846 9.55739 20.7759 9.78182C21.2564 10.3457 21.4967 10.6276 21.6376 10.9224C21.9635 11.6042 21.9635 12.3968 21.6376 13.0786C21.4967 13.3734 21.2564 13.6553 20.7759 14.2192C20.5846 14.4436 20.489 14.5558 20.4087 14.6757C20.2246 14.9504 20.0968 15.2589 20.0327 15.5833C20.0048 15.7249 19.993 15.8718 19.9696 16.1658C19.9107 16.9043 19.8812 17.2735 19.7724 17.5816C19.5207 18.2941 18.9602 18.8546 18.2477 19.1062C17.9397 19.2151 17.5704 19.2445 16.8319 19.3035C16.538 19.3269 16.391 19.3386 16.2495 19.3666C15.925 19.4306 15.6165 19.5584 15.3418 19.7426C15.222 19.8229 15.1097 19.9185 14.8853 20.1098C14.3214 20.5903 14.0395 20.8305 13.7447 20.9714C13.0629 21.2973 12.2703 21.2973 11.5885 20.9714C11.2938 20.8305 11.0118 20.5903 10.448 20.1098C10.2235 19.9185 10.1113 19.8229 9.99148 19.7426C9.71677 19.5584 9.40825 19.4306 9.0838 19.3666C8.94227 19.3386 8.7953 19.3269 8.50138 19.3035C7.76287 19.2445 7.39362 19.2151 7.08555 19.1062C6.37303 18.8546 5.81257 18.2941 5.5609 17.5816C5.45208 17.2735 5.42262 16.9043 5.36369 16.1658C5.34023 15.8718 5.3285 15.7249 5.30056 15.5833C5.2365 15.2589 5.10871 14.9504 4.92459 14.6757C4.84426 14.5558 4.74864 14.4436 4.55739 14.2192C4.07686 13.6553 3.83659 13.3734 3.6957 13.0786C3.36983 12.3968 3.36983 11.6042 3.6957 10.9224C3.83659 10.6276 4.07686 10.3457 4.55739 9.78182C4.74864 9.5574 4.84426 9.44518 4.92459 9.32534C5.10871 9.05063 5.2365 8.74211 5.30056 8.41767C5.3285 8.27613 5.34023 8.12917 5.36369 7.83524C5.42262 7.09674 5.45208 6.72748 5.5609 6.41942C5.81257 5.70689 6.37303 5.14643 7.08556 4.89476C7.39362 4.78595 7.76287 4.75648 8.50138 4.69755C8.7953 4.67409 8.94227 4.66236 9.0838 4.63442C9.40825 4.57037 9.71677 4.44257 9.99148 4.25845C10.1113 4.17813 10.2235 4.0825 10.448 3.89125Z" stroke="#1C274C" stroke-width="1.5"/>
<path d="M9.66663 15L15.6666 9" stroke="#1C274C" stroke-width="1.5" stroke-linecap="round"/>
<path d="M16.1666 14.5C16.1666 15.0523 15.7189 15.5 15.1666 15.5C14.6143 15.5 14.1666 15.0523 14.1666 14.5C14.1666 13.9477 14.6143 13.5 15.1666 13.5C15.7189 13.5 16.1666 13.9477 16.1666 14.5Z" fill="#1C274C"/>
<path d="M11.1666 9.5C11.1666 10.0523 10.7189 10.5 10.1666 10.5C9.61434 10.5 9.16663 10.0523 9.16663 9.5C9.16663 8.94772 9.61434 8.5 10.1666 8.5C10.7189 8.5 11.1666 8.94772 11.1666 9.5Z" fill="#1C274C"/>
</svg>
