<svg width="25" height="24" viewBox="0 0 25 24" fill="none" xmlns="http://www.w3.org/2000/svg">
<path d="M2.3335 11.9994C2.3335 16.7135 2.3335 19.0705 3.79796 20.535C5.26243 21.9994 7.61945 21.9994 12.3335 21.9994C17.0475 21.9994 19.4046 21.9994 20.869 20.535C22.2261 19.1779 22.3256 17.0545 22.3329 12.9994M11.3335 2C7.27843 2.0073 5.15499 2.10686 3.79796 3.46389C2.98139 4.28046 2.62013 5.37454 2.4603 7" stroke="#1C274C" stroke-width="1.5" stroke-linecap="round"/>
<path d="M13.3333 11L22.3333 2M22.3333 2H16.9895M22.3333 2V7.34375M21.3333 3L12.3333 12M12.3333 12H16.3333M12.3333 12V8" stroke="#1C274C" stroke-width="1.5" stroke-linecap="round" stroke-linejoin="round"/>
</svg>
