<svg width="25" height="24" viewBox="0 0 25 24" fill="none" xmlns="http://www.w3.org/2000/svg">
<path d="M3.66663 10.4167C3.66663 7.21907 3.66663 5.62028 4.04414 5.08241C4.42166 4.54454 5.92495 4.02996 8.93154 3.00079L9.50435 2.80472C11.0716 2.26824 11.8552 2 12.6666 2C13.478 2 14.2616 2.26824 15.8289 2.80472L16.4017 3.00079C19.4083 4.02996 20.9116 4.54454 21.2891 5.08241C21.6666 5.62028 21.6666 7.21907 21.6666 10.4167C21.6666 10.8996 21.6666 11.4234 21.6666 11.9914C21.6666 17.6294 17.4277 20.3655 14.7681 21.5273C14.0466 21.8424 13.6859 22 12.6666 22C11.6474 22 11.2866 21.8424 10.5652 21.5273C7.90559 20.3655 3.66663 17.6294 3.66663 11.9914C3.66663 11.4234 3.66663 10.8996 3.66663 10.4167Z" stroke="#1C274C" stroke-width="1.5"/>
</svg>
