<svg width="25" height="24" viewBox="0 0 25 24" fill="none" xmlns="http://www.w3.org/2000/svg">
<g clip-path="url(#clip0_1892_36155)">
<path d="M13.6666 2C16.7809 2.00911 18.432 2.10755 19.4951 3.17064C20.6666 4.34222 20.6666 6.22783 20.6666 9.99907V13.9991C20.6666 17.7703 20.6666 19.6559 19.4951 20.8275C18.3235 21.9991 16.4379 21.9991 12.6666 21.9991C8.89539 21.9991 7.00977 21.9991 5.8382 20.8275C4.66663 19.6559 4.66663 17.7703 4.66663 13.9991V11" stroke="#1C274C" stroke-width="1.5" stroke-linecap="round"/>
<path d="M3.39679 4H2.64679H3.39679ZM3.39679 4.8L2.84283 5.3056C2.98493 5.46129 3.186 5.55 3.39679 5.55C3.60758 5.55 3.80864 5.46129 3.95075 5.3056L3.39679 4.8ZM4.68091 4.5056C4.96014 4.19966 4.93849 3.72528 4.63255 3.44604C4.32661 3.16681 3.85223 3.18846 3.57299 3.4944L4.68091 4.5056ZM3.22058 3.4944C2.94135 3.18846 2.46697 3.16681 2.16103 3.44604C1.85508 3.72528 1.83343 4.19966 2.11267 4.5056L3.22058 3.4944ZM10.9365 3.2L11.4904 2.6944C11.3483 2.53871 11.1473 2.45 10.9365 2.45C10.7257 2.45 10.5246 2.53871 10.3825 2.6944L10.9365 3.2ZM9.65234 3.4944C9.37311 3.80034 9.39476 4.27472 9.7007 4.55396C10.0066 4.83319 10.481 4.81154 10.7603 4.5056L9.65234 3.4944ZM11.1127 4.5056C11.3919 4.81154 11.8663 4.83319 12.1722 4.55396C12.4782 4.27472 12.4998 3.80034 12.2206 3.4944L11.1127 4.5056ZM5.243 6.30618C4.96598 5.99824 4.49176 5.97317 4.18382 6.2502C3.87588 6.52723 3.85081 7.00144 4.12784 7.30938L5.243 6.30618ZM9.20631 1.83047C9.46541 2.15364 9.93743 2.20559 10.2606 1.94649C10.5838 1.68739 10.6357 1.21537 10.3766 0.892194L9.20631 1.83047ZM7.0476 0V-0.75C4.55409 -0.75 2.64679 1.4426 2.64679 4H3.39679H4.14679C4.14679 2.13913 5.50854 0.75 7.0476 0.75V0ZM3.39679 4H2.64679L2.64679 4.8H3.39679H4.14679L4.14679 4L3.39679 4ZM3.39679 4.8L3.95075 5.3056L4.68091 4.5056L4.12695 4L3.57299 3.4944L2.84283 4.2944L3.39679 4.8ZM3.39679 4.8L3.95075 4.2944L3.22058 3.4944L2.66663 4L2.11267 4.5056L2.84283 5.3056L3.39679 4.8ZM7.28565 8V8.75C9.77916 8.75 11.6865 6.5574 11.6865 4H10.9365H10.1865C10.1865 5.86087 8.82472 7.25 7.28565 7.25V8ZM10.9365 4H11.6865V3.2H10.9365H10.1865V4H10.9365ZM10.9365 3.2L10.3825 2.6944L9.65234 3.4944L10.2063 4L10.7603 4.5056L11.4904 3.7056L10.9365 3.2ZM10.9365 3.2L10.3825 3.7056L11.1127 4.5056L11.6666 4L12.2206 3.4944L11.4904 2.6944L10.9365 3.2ZM4.68542 6.80778L4.12784 7.30938C4.91811 8.18785 6.03513 8.75 7.28565 8.75V8V7.25C6.50077 7.25 5.77692 6.89968 5.243 6.30618L4.68542 6.80778ZM9.79147 1.36133L10.3766 0.892194C9.58052 -0.10079 8.39213 -0.75 7.0476 -0.75V0V0.75C7.89014 0.75 8.66422 1.15432 9.20631 1.83047L9.79147 1.36133Z" fill="#1C274C"/>
<path d="M15.6666 19H9.66663" stroke="#1C274C" stroke-width="1.5" stroke-linecap="round"/>
</g>
<defs>
<clipPath id="clip0_1892_36155">
<rect width="24" height="24" fill="white" transform="translate(0.666626)"/>
</clipPath>
</defs>
</svg>
