<svg width="25" height="25" viewBox="0 0 25 25" fill="none" xmlns="http://www.w3.org/2000/svg">
<path d="M9.81979 5.90838C11.0864 3.63613 11.7198 2.5 12.6666 2.5C13.6135 2.5 14.2468 3.63612 15.5135 5.90837L15.8412 6.49623C16.2011 7.14193 16.3811 7.46479 16.6617 7.67781C16.9423 7.89083 17.2918 7.9699 17.9907 8.12805L18.6271 8.27203C21.0868 8.82856 22.3166 9.10682 22.6092 10.0477C22.9018 10.9886 22.0634 11.9691 20.3865 13.9299L19.9527 14.4372C19.4762 14.9944 19.2379 15.273 19.1308 15.6177C19.0236 15.9624 19.0596 16.3341 19.1316 17.0776L19.1972 17.7544C19.4507 20.3706 19.5775 21.6787 18.8115 22.2602C18.0455 22.8417 16.894 22.3115 14.591 21.2512L13.9951 20.9768C13.3407 20.6755 13.0135 20.5248 12.6666 20.5248C12.3198 20.5248 11.9926 20.6755 11.3381 20.9768L10.7423 21.2512C8.4393 22.3115 7.2878 22.8417 6.52177 22.2602C5.75575 21.6787 5.88251 20.3706 6.13602 17.7544L6.20161 17.0776C6.27365 16.3341 6.30967 15.9624 6.20249 15.6177C6.09531 15.273 5.85705 14.9944 5.38054 14.4372L4.94672 13.9299C3.26987 11.9691 2.43145 10.9886 2.72405 10.0477C3.01664 9.10682 4.24648 8.82856 6.70616 8.27203L7.34251 8.12805C8.04148 7.9699 8.39096 7.89083 8.67157 7.67781C8.95218 7.46479 9.13215 7.14194 9.49209 6.49623L9.81979 5.90838Z" stroke="#1C274C" stroke-width="1.5"/>
</svg>
