<svg width="37" height="36" viewBox="0 0 37 36" fill="none" xmlns="http://www.w3.org/2000/svg">
<rect width="37" height="36" fill="#1E1E1E"/>
<rect x="-5511" y="-10305" width="6120" height="16675" rx="16" fill="#101010"/>
<g clip-path="url(#clip0_626_66619)">
<rect width="1280" height="832" transform="translate(-871 -142)" fill="white"/>
<g clip-path="url(#clip1_626_66619)">
<g clip-path="url(#clip2_626_66619)">
<mask id="path-2-inside-1_626_66619" fill="white">
<path d="M-436.333 -70H393V690H-436.333V-70Z"/>
</mask>
<path d="M-436.333 690H-435.333V-70H-436.333H-437.333V690H-436.333Z" fill="#E2E8F0" mask="url(#path-2-inside-1_626_66619)"/>
<path d="M-420.333 -44C-420.333 -52.8366 -413.17 -60 -404.333 -60H361C369.836 -60 377 -52.8366 377 -44V96C377 104.837 369.836 112 361 112H-404.334C-413.17 112 -420.333 104.837 -420.333 96V-44Z" fill="#F1F5F9"/>
<path d="M0.333008 -11.5H349C355.351 -11.4998 360.5 -6.35117 360.5 0V36C360.5 42.3512 355.351 47.4998 349 47.5H0.333008C-6.01827 47.5 -11.167 42.3513 -11.167 36V0C-11.167 -6.35127 -6.01827 -11.5 0.333008 -11.5Z" fill="white"/>
<path d="M0.333008 -11.5H349C355.351 -11.4998 360.5 -6.35117 360.5 0V36C360.5 42.3512 355.351 47.4998 349 47.5H0.333008C-6.01827 47.5 -11.167 42.3513 -11.167 36V0C-11.167 -6.35127 -6.01827 -11.5 0.333008 -11.5Z" stroke="#E5E7EB"/>
<path d="M349 36H0.333008V0H349V36Z" stroke="#E5E7EB"/>
<path d="M18.333 0C28.2741 0 36.333 8.05888 36.333 18C36.333 27.9411 28.2741 36 18.333 36C8.39188 36 0.333008 27.9411 0.333008 18C0.333008 8.05888 8.39188 0 18.333 0Z" fill="#5B56F6"/>
<path d="M18.333 0C28.2741 0 36.333 8.05888 36.333 18C36.333 27.9411 28.2741 36 18.333 36C8.39188 36 0.333008 27.9411 0.333008 18C0.333008 8.05888 8.39188 0 18.333 0Z" stroke="#E5E7EB"/>
<path d="M29.583 28H7.08301V8H29.583V28Z" stroke="#E5E7EB"/>
<path d="M29.583 28H7.08301V8H29.583V28Z" stroke="#E5E7EB"/>
<path d="M13.4861 14.6469L12.133 14.9344L12.1268 19.3844C12.1268 20.2062 12.7455 20.7375 13.5674 20.7375C14.0236 20.7375 14.358 20.6531 14.5424 20.5531V19.4969C14.3643 19.5687 13.4893 19.825 13.4893 19.0063V17.0312H14.5424V15.85H13.4893L13.4861 14.6469ZM16.2705 16.2594L16.1861 15.85H14.9861V20.6375H16.3705V17.4156C16.6986 16.9844 17.2518 17.0687 17.4299 17.125V15.85C17.2424 15.7844 16.5955 15.6625 16.2705 16.2594ZM19.1549 14L17.7611 14.2969V15.4281L19.1549 15.1312V14ZM9.73301 17.2594C9.73301 17.0438 9.91426 16.9594 10.2049 16.9563C10.6268 16.9563 11.1643 17.0844 11.5861 17.3125V16.0062C11.1268 15.825 10.6674 15.7531 10.208 15.7531C9.08301 15.7531 8.33301 16.3406 8.33301 17.3219C8.33301 18.8594 10.4424 18.6094 10.4424 19.2719C10.4424 19.5281 10.2205 19.6125 9.91113 19.6125C9.45176 19.6125 8.85801 19.4219 8.39238 19.1687V20.4187C8.90801 20.6406 9.42988 20.7344 9.90801 20.7344C11.0611 20.7344 11.8549 20.2406 11.8549 19.2406C11.8549 17.5875 9.73301 17.8844 9.73301 17.2594ZM28.3299 18.3C28.3299 16.8781 27.6424 15.7562 26.3236 15.7562C25.0049 15.7562 24.2018 16.8781 24.2018 18.2906C24.2018 19.9625 25.1486 20.7344 26.4986 20.7344C27.1611 20.7344 27.658 20.5844 28.0361 20.375V19.3313C27.658 19.5219 27.2236 19.6375 26.6736 19.6375C26.133 19.6375 25.658 19.4469 25.5955 18.7969H28.3111C28.3174 18.725 28.3299 18.4344 28.3299 18.3ZM25.583 17.775C25.583 17.15 25.9674 16.8875 26.3143 16.8875C26.6549 16.8875 27.0174 17.15 27.0174 17.775H25.583ZM22.0549 15.7562C21.5111 15.7562 21.1611 16.0125 20.9674 16.1906L20.8955 15.8469H19.6736V22.2469L21.0611 21.9531L21.0643 20.3844C21.2643 20.5312 21.5611 20.7344 22.0455 20.7344C23.0393 20.7344 23.9455 20.0094 23.9455 18.2469C23.9486 16.6344 23.0299 15.7562 22.0549 15.7562ZM21.7236 19.5844C21.3986 19.5844 21.2049 19.4656 21.0705 19.3219L21.0611 17.2594C21.2049 17.1 21.4049 16.9844 21.7236 16.9844C22.2299 16.9844 22.5799 17.5531 22.5799 18.2781C22.583 19.025 22.2393 19.5844 21.7236 19.5844ZM17.7643 20.6375H19.158V15.85H17.7643V20.6375Z" fill="white"/>
</g>
</g>
</g>
<defs>
<clipPath id="clip0_626_66619">
<rect width="1280" height="832" fill="white" transform="translate(-871 -142)"/>
</clipPath>
<clipPath id="clip1_626_66619">
<rect width="1173.33" height="832" fill="white" transform="translate(-764.333 -142)"/>
</clipPath>
<clipPath id="clip2_626_66619">
<rect width="1173.33" height="760" fill="white" transform="translate(-764.333 -70)"/>
</clipPath>
</defs>
</svg>
