<svg width="25" height="24" viewBox="0 0 25 24" fill="none" xmlns="http://www.w3.org/2000/svg">
<path d="M5.39511 16.1369C3.84958 14.5914 3.07681 13.8186 2.78926 12.816C2.50172 11.8134 2.74746 10.7485 3.23894 8.61875L3.52237 7.39057C3.93585 5.59881 4.14259 4.70292 4.75607 4.08944C5.36955 3.47597 6.26543 3.26922 8.0572 2.85574L9.28538 2.57231C11.4151 2.08083 12.48 1.83509 13.4826 2.12264C14.4852 2.41018 15.258 3.18295 16.8035 4.72848L18.6331 6.55812C21.3221 9.24711 22.6666 10.5916 22.6666 12.2623C22.6666 13.933 21.3221 15.2775 18.6331 17.9665C15.9442 20.6555 14.5997 22 12.9289 22C11.2582 22 9.91373 20.6555 7.22475 17.9665L5.39511 16.1369Z" stroke="#1C274C" stroke-width="1.5"/>
<circle cx="9.27374" cy="8.87891" r="2" transform="rotate(-45 9.27374 8.87891)" stroke="#1C274C" stroke-width="1.5"/>
<path d="M12.2084 18.5L19.1874 11.5208" stroke="#1C274C" stroke-width="1.5" stroke-linecap="round"/>
</svg>
