<svg width="33" height="32" viewBox="0 0 33 32" fill="none" xmlns="http://www.w3.org/2000/svg">
<path fill-rule="evenodd" clip-rule="evenodd" d="M18.5745 5.95403C17.5282 4.88251 15.8049 4.88251 14.7586 5.95403L13.9743 6.75725C13.4648 7.27904 12.7639 7.56939 12.0346 7.5607L10.9121 7.54733C9.41455 7.5295 8.196 8.74805 8.21384 10.2456L8.22721 11.3681C8.23589 12.0974 7.94554 12.7983 7.42376 13.3078L6.62054 14.0921C5.54901 15.1384 5.54901 16.8617 6.62054 17.908L7.42376 18.6923C7.94554 19.2018 8.23589 19.9028 8.22721 20.632L8.21384 21.7546C8.196 23.2521 9.41456 24.4707 10.9121 24.4528L12.0346 24.4395C12.7639 24.4308 13.4648 24.7211 13.9743 25.2429L14.7586 26.0461C15.8049 27.1177 17.5282 27.1177 18.5745 26.0461L19.3588 25.2429C19.8683 24.7211 20.5693 24.4308 21.2986 24.4395L22.4211 24.4528C23.9186 24.4707 25.1372 23.2521 25.1193 21.7546L25.106 20.632C25.0973 19.9028 25.3876 19.2018 25.9094 18.6923L26.7126 17.908C27.7842 16.8617 27.7842 15.1384 26.7126 14.0921L25.9094 13.3078C25.3876 12.7983 25.0973 12.0974 25.106 11.3681L25.1193 10.2456C25.1372 8.74805 23.9186 7.5295 22.4211 7.54733L21.2986 7.5607C20.5693 7.56939 19.8683 7.27904 19.3588 6.75725L18.5745 5.95403ZM21.609 12.391C21.0883 11.8703 20.2449 11.8703 19.7242 12.391L15.3326 16.7807L13.609 15.0571C13.0884 14.5368 12.2448 14.5368 11.7242 15.0571C11.2035 15.5778 11.2035 16.4221 11.7242 16.9428L13.9195 19.1381C14.7006 19.9189 15.9667 19.9191 16.7476 19.1381L21.609 14.2758C22.1297 13.7551 22.1297 12.9117 21.609 12.391Z" fill="url(#paint0_linear_2427_42756)"/>
<defs>
<linearGradient id="paint0_linear_2427_42756" x1="8.66657" y1="10.5001" x2="23.1666" y2="23.0001" gradientUnits="userSpaceOnUse">
<stop stop-color="#FCD90F"/>
<stop offset="1" stop-color="#FA9600"/>
</linearGradient>
</defs>
</svg>
