<svg width="48" height="48" viewBox="0 0 48 48" fill="none" xmlns="http://www.w3.org/2000/svg">
<path fill-rule="evenodd" clip-rule="evenodd" d="M24 24C28.4183 24 32 20.4183 32 16C32 11.5817 28.4183 8 24 8C19.5817 8 16 11.5817 16 16C16 20.4183 19.5817 24 24 24ZM8 38C8 39.1046 8.89543 40 10 40H38C39.1046 40 40 39.1046 40 38V33.0915C40 32.4112 39.6554 31.7787 39.0704 31.4315C36.5485 29.9348 29.4042 26 24 26C18.5958 26 11.4515 29.9348 8.9296 31.4315C8.34456 31.7787 8 32.4112 8 33.0915V38Z" fill="#334155"/>
</svg>
