<svg width="19" height="18" viewBox="0 0 19 18" fill="none" xmlns="http://www.w3.org/2000/svg">
<path fill-rule="evenodd" clip-rule="evenodd" d="M10.7399 3.34902C10.1514 2.74629 9.182 2.74629 8.59346 3.34902L8.15228 3.80083C7.86569 4.09434 7.47139 4.25766 7.0612 4.25277L6.42976 4.24525C5.5874 4.23522 4.90197 4.92066 4.912 5.76301L4.91952 6.39445C4.92441 6.80464 4.76109 7.19894 4.46758 7.48553L4.01577 7.92671C3.41304 8.51525 3.41304 9.4846 4.01577 10.0731L4.46758 10.5143C4.76109 10.8009 4.92441 11.1952 4.91952 11.6054L4.912 12.2368C4.90197 13.0792 5.5874 13.7646 6.42976 13.7546L7.0612 13.7471C7.47139 13.7422 7.86569 13.9055 8.15228 14.199L8.59346 14.6508C9.182 15.2536 10.1514 15.2536 10.7399 14.6508L11.1811 14.199C11.4677 13.9055 11.862 13.7422 12.2722 13.7471L12.9036 13.7546C13.7459 13.7646 14.4314 13.0792 14.4213 12.2368L14.4138 11.6054C14.4089 11.1952 14.5723 10.8009 14.8658 10.5143L15.3176 10.0731C15.9203 9.4846 15.9203 8.51525 15.3176 7.92671L14.8658 7.48553C14.5723 7.19894 14.4089 6.80464 14.4138 6.39445L14.4213 5.76301C14.4314 4.92066 13.7459 4.23522 12.9036 4.24525L12.2722 4.25277C11.862 4.25766 11.4677 4.09434 11.1811 3.80083L10.7399 3.34902ZM12.4469 6.96965C12.1541 6.67676 11.6793 6.67676 11.3864 6.96965L8.9157 9.4384L7.94695 8.46965L7.89031 8.4179C7.59573 8.17759 7.16101 8.19505 6.8864 8.46965C6.59351 8.76255 6.59351 9.23731 6.8864 9.5302L8.12078 10.7656C8.56011 11.2049 9.27324 11.2049 9.71257 10.7656L12.4469 8.0302C12.7398 7.73731 12.7398 7.26255 12.4469 6.96965Z" fill="#2A69BA"/>
</svg>
