<svg width="37" height="37" viewBox="0 0 37 37" fill="none" xmlns="http://www.w3.org/2000/svg">
<path fill-rule="evenodd" clip-rule="evenodd" d="M3.6665 19.25V17.75C3.6665 12.8188 3.6665 10.3532 5.02844 8.69364C5.27777 8.38984 5.55634 8.11126 5.86014 7.86194C7.51967 6.5 9.98528 6.5 14.9165 6.5C19.8477 6.5 22.3133 6.5 23.9729 7.86194C24.2767 8.11126 24.5552 8.38984 24.8046 8.69364C25.8569 9.97595 26.0961 11.7395 26.1505 14.75L27.154 14.2562C30.0729 12.7968 31.5323 12.0671 32.5994 12.7266C33.6665 13.3861 33.6665 15.0178 33.6665 18.2812V18.7188C33.6665 21.9822 33.6665 23.6139 32.5994 24.2734C31.5323 24.9329 30.0729 24.2032 27.154 22.7438L26.1505 22.25C26.0961 25.2605 25.8569 27.0241 24.8046 28.3064C24.5552 28.6102 24.2767 28.8887 23.9729 29.1381C22.3133 30.5 19.8477 30.5 14.9165 30.5C9.98528 30.5 7.51967 30.5 5.86014 29.1381C5.55634 28.8887 5.27777 28.6102 5.02844 28.3064C3.6665 26.6468 3.6665 24.1812 3.6665 19.25ZM21.0075 14.841C21.8862 13.9623 21.8862 12.5377 21.0075 11.659C20.1288 10.7803 18.7042 10.7803 17.8255 11.659C16.9468 12.5377 16.9468 13.9623 17.8255 14.841C18.7042 15.7197 20.1288 15.7197 21.0075 14.841Z" fill="white"/>
</svg>
