<svg width="25" height="25" viewBox="0 0 25 25" fill="none" xmlns="http://www.w3.org/2000/svg">
<path d="M17.1403 10.3229L17.7986 9.99377C19.7445 9.02082 20.7175 8.53435 21.4289 8.97402C22.1403 9.41369 22.1403 10.5015 22.1403 12.677V12.9688C22.1403 15.1444 22.1403 16.2322 21.4289 16.6719C20.7175 17.1115 19.7445 16.6251 17.7986 15.6521L17.1403 15.3229V10.3229Z" stroke="#1C274C" stroke-width="1.5"/>
<path d="M13.7009 8.26209C14.2867 8.84788 14.2867 9.79763 13.7009 10.3834C13.1151 10.9692 12.1654 10.9692 11.5796 10.3834C10.9938 9.79763 10.9938 8.84788 11.5796 8.26209C12.1654 7.67631 13.1151 7.67631 13.7009 8.26209Z" stroke="#1C274C" stroke-width="1.5"/>
<path d="M2.14026 12.3228C2.14026 9.03527 2.14026 7.39153 3.04822 6.28518C3.21443 6.08264 3.40015 5.89693 3.60269 5.73071C4.70904 4.82275 6.35278 4.82275 9.64026 4.82275C12.9277 4.82275 14.5715 4.82275 15.6778 5.73071C15.8804 5.89693 16.0661 6.08264 16.2323 6.28518C17.1403 7.39153 17.1403 9.03527 17.1403 12.3228V13.3228C17.1403 16.6102 17.1403 18.254 16.2323 19.3603C16.0661 19.5629 15.8804 19.7486 15.6778 19.9148C14.5715 20.8228 12.9277 20.8228 9.64026 20.8228C6.35278 20.8228 4.70904 20.8228 3.60269 19.9148C3.40015 19.7486 3.21443 19.5629 3.04822 19.3603C2.14026 18.254 2.14026 16.6102 2.14026 13.3228V12.3228Z" stroke="#1C274C" stroke-width="1.5"/>
</svg>
