<svg width="25" height="24" viewBox="0 0 25 24" fill="none" xmlns="http://www.w3.org/2000/svg">
<path fill-rule="evenodd" clip-rule="evenodd" d="M9.86772 3.25H9.96554C11.5678 3.24999 12.8372 3.24998 13.8414 3.36868C14.8723 3.49054 15.721 3.74638 16.43 4.3282C16.6705 4.52558 16.891 4.74612 17.0884 4.98663C17.6702 5.69558 17.9261 6.54428 18.0479 7.57525C18.0753 7.80698 18.0964 8.05283 18.1126 8.31364C18.8986 7.92192 19.5647 7.60005 20.1198 7.41841C20.7712 7.20525 21.4622 7.11922 22.0995 7.51309C22.7368 7.90695 22.9689 8.56347 23.0696 9.24146C23.1667 9.89558 23.1667 10.7572 23.1666 11.7924V12.2076C23.1667 13.2428 23.1667 14.1044 23.0696 14.7585C22.9689 15.4365 22.7368 16.093 22.0995 16.4869C21.4622 16.8808 20.7712 16.7948 20.1198 16.5816C19.5647 16.3999 18.8986 16.0781 18.1126 15.6864C18.0964 15.9472 18.0753 16.193 18.0479 16.4248C17.9261 17.4557 17.6702 18.3044 17.0884 19.0134C16.891 19.2539 16.6705 19.4744 16.43 19.6718C15.721 20.2536 14.8723 20.5095 13.8414 20.6313C12.8372 20.75 11.5678 20.75 9.96557 20.75H9.86768C8.26543 20.75 6.99609 20.75 5.99188 20.6313C4.96091 20.5095 4.11221 20.2536 3.40326 19.6718C3.16275 19.4744 2.94221 19.2539 2.74483 19.0134C2.16301 18.3044 1.90717 17.4557 1.78531 16.4248C1.6666 15.4205 1.66661 14.1512 1.66663 12.5489V11.4511C1.66661 9.84882 1.6666 8.57947 1.78531 7.57525C1.90717 6.54428 2.16301 5.69558 2.74483 4.98663C2.94221 4.74612 3.16275 4.52558 3.40326 4.3282C4.11221 3.74638 4.96091 3.49054 5.99188 3.36868C6.99609 3.24998 8.26545 3.24999 9.86772 3.25ZM16.6666 12.5V11.5C16.6666 9.83789 16.6654 8.65724 16.5583 7.75133C16.4532 6.86197 16.2551 6.33563 15.9289 5.93822C15.7939 5.77366 15.643 5.62277 15.4784 5.48772C15.081 5.16158 14.5547 4.96344 13.6653 4.85831C12.7594 4.75123 11.5787 4.75 9.91663 4.75C8.25451 4.75 7.07387 4.75123 6.16796 4.85831C5.2786 4.96344 4.75225 5.16158 4.35485 5.48772C4.19029 5.62277 4.03939 5.77366 3.90434 5.93822C3.5782 6.33563 3.38006 6.86197 3.27494 7.75133C3.16785 8.65724 3.16663 9.83789 3.16663 11.5V12.5C3.16663 14.1621 3.16785 15.3428 3.27494 16.2487C3.38006 17.138 3.5782 17.6644 3.90434 18.0618C4.03939 18.2263 4.19029 18.3772 4.35485 18.5123C4.75225 18.8384 5.2786 19.0366 6.16796 19.1417C7.07387 19.2488 8.25451 19.25 9.91663 19.25C11.5787 19.25 12.7594 19.2488 13.6653 19.1417C14.5547 19.0366 15.081 18.8384 15.4784 18.5123C15.643 18.3772 15.7939 18.2263 15.9289 18.0618C16.2551 17.6644 16.4532 17.138 16.5583 16.2487C16.6654 15.3428 16.6666 14.1621 16.6666 12.5ZM18.1666 14.0365L18.4104 14.1584C19.4058 14.6561 20.0764 14.9891 20.5863 15.156C21.0856 15.3194 21.2368 15.2567 21.3109 15.2109C21.385 15.1651 21.5087 15.0579 21.5858 14.5382C21.6646 14.0076 21.6666 13.2588 21.6666 12.1459V11.8541C21.6666 10.7412 21.6646 9.99243 21.5858 9.46179C21.5087 8.94208 21.385 8.83487 21.3109 8.78906C21.2368 8.74326 21.0856 8.68063 20.5863 8.84403C20.0764 9.01086 19.4058 9.34395 18.4104 9.84164L18.1666 9.96353V11.3665C18.1666 11.3946 18.1666 11.4228 18.1666 11.4511V12.5489C18.1666 12.5772 18.1666 12.6054 18.1666 12.6335V14.0365ZM13.447 7.96967C13.1541 7.67678 12.6792 7.67678 12.3863 7.96967C12.0934 8.26256 12.0934 8.73744 12.3863 9.03033C12.6792 9.32322 13.1541 9.32322 13.447 9.03033C13.7399 8.73744 13.7399 8.26256 13.447 7.96967ZM11.3256 6.90901C12.2043 6.03033 13.6289 6.03033 14.5076 6.90901C15.3863 7.78769 15.3863 9.21231 14.5076 10.091C13.6289 10.9697 12.2043 10.9697 11.3256 10.091C10.447 9.21231 10.447 7.78769 11.3256 6.90901Z" fill="white"/>
</svg>
