<svg width="22" height="22" viewBox="0 0 22 22" fill="none" xmlns="http://www.w3.org/2000/svg">
<path d="M15.2856 8.85745L15.85 8.57529C17.5179 7.74134 18.3518 7.32437 18.9616 7.70123C19.5714 8.07809 19.5714 9.01047 19.5714 10.8752V11.1254C19.5714 12.9901 19.5714 13.9225 18.9616 14.2994C18.3518 14.6762 17.5179 14.2593 15.85 13.4253L15.2856 13.1432V8.85745Z" stroke="#1C274C" stroke-width="1.28571"/>
<path d="M12.3374 7.09093C12.8395 7.59304 12.8395 8.4071 12.3374 8.90921C11.8353 9.41131 11.0213 9.41131 10.5192 8.90921C10.0171 8.4071 10.0171 7.59304 10.5192 7.09093C11.0213 6.58883 11.8353 6.58883 12.3374 7.09093Z" stroke="#1C274C" stroke-width="1.28571"/>
<path d="M2.42847 10.5714V11.4285C2.42847 14.2464 2.42847 15.6553 3.20672 16.6036C3.34919 16.7772 3.50837 16.9364 3.68198 17.0789C4.63028 17.8571 6.0392 17.8571 8.85704 17.8571C11.6749 17.8571 13.0838 17.8571 14.0321 17.0789C14.2057 16.9364 14.3649 16.7772 14.5074 16.6036C15.2856 15.6553 15.2856 14.2464 15.2856 11.4285V10.5714C15.2856 7.75355 15.2856 6.34463 14.5074 5.39633C14.3649 5.22273 14.2057 5.06354 14.0321 4.92107C13.0838 4.14282 11.6749 4.14282 8.85704 4.14282C6.0392 4.14282 4.63028 4.14282 3.68198 4.92107C3.50837 5.06354 3.34919 5.22273 3.20672 5.39633C2.84001 5.84316 2.6461 6.39226 2.54355 7.14282" stroke="#1C274C" stroke-width="1.28571" stroke-linecap="round"/>
</svg>
