<svg width="25" height="24" viewBox="0 0 25 24" fill="none" xmlns="http://www.w3.org/2000/svg">
<path d="M6.66663 10H10.6666" stroke="#1C274C" stroke-width="1.5" stroke-linecap="round" stroke-linejoin="round"/>
<path d="M21.5 11H18.8974C17.1131 11 15.6666 12.3431 15.6666 14C15.6666 15.6569 17.1131 17 18.8974 17H21.5C21.5833 17 21.625 17 21.6601 16.9979C22.1994 16.965 22.629 16.5662 22.6643 16.0654C22.6666 16.0327 22.6666 15.994 22.6666 15.9167V12.0833C22.6666 12.006 22.6666 11.9673 22.6643 11.9346C22.629 11.4338 22.1994 11.035 21.6601 11.0021C21.625 11 21.5833 11 21.5 11Z" stroke="#1C274C" stroke-width="1.5"/>
<circle cx="18.6666" cy="14" r="1" fill="#1C274C"/>
<path d="M21.6317 11C21.5539 9.1277 21.3032 7.97975 20.4951 7.17157C19.3235 6 17.4379 6 13.6666 6H10.6666C6.89539 6 5.00977 6 3.8382 7.17157C2.66663 8.34315 2.66663 10.2288 2.66663 14C2.66663 17.7712 2.66663 19.6569 3.8382 20.8284C5.00977 22 6.89539 22 10.6666 22H13.6666C17.4379 22 19.3235 22 20.4951 20.8284C21.3032 20.0203 21.5539 18.8723 21.6317 17" stroke="#1C274C" stroke-width="1.5"/>
<path d="M6.66663 6L10.4021 3.52313C11.4541 2.82562 12.8792 2.82562 13.9311 3.52313L17.6666 6" stroke="#1C274C" stroke-width="1.5" stroke-linecap="round"/>
</svg>
